<?xml version="1.0" encoding="UTF-8"?><svg id="Piano_terzo_A" xmlns="http://www.w3.org/2000/svg" xmlns:xlink="http://www.w3.org/1999/xlink" viewBox="0 0 902.13 817.35"><defs><style>.cls-1,.cls-2,.cls-3,.cls-4,.cls-5,.cls-6,.cls-7{fill:none;}.cls-2{stroke-linejoin:bevel;}.cls-2,.cls-3,.cls-4,.cls-5,.cls-6{stroke:#ccc;}.cls-2,.cls-4,.cls-5,.cls-7{stroke-width:2.83px;}.cls-2,.cls-4,.cls-6{stroke-linecap:square;}.cls-3,.cls-4,.cls-5,.cls-6,.cls-7{stroke-miterlimit:10;}.cls-3,.cls-6{stroke-width:.71px;}.cls-3,.cls-7{stroke-linecap:round;}.cls-7{stroke:#000;}.cls-8{clip-path:url(#clippath);}</style><clipPath id="clippath"><polygon class="cls-1" points="654.91 209.8 691.27 209.8 691.27 282.92 782.53 282.92 782.53 1.42 848.98 1.42 900.6 631.1 770.49 640.68 683.37 563.4 654.91 209.8"/></clipPath></defs><path class="cls-6" d="M325.48,310.02s34.96,0,34.32,0l-34.32,21.83"/><polygon class="cls-4" points="629.2 650.62 900.6 631.61 848.98 1.74 1.53 1.42 17.65 220.62 17.65 815.93 453.46 815.93 453.46 738.18 538.6 738.18 538.6 657.06 629.2 650.62"/><polyline class="cls-4" points="17.65 353.22 280.12 353.22 280.12 292.74"/><line class="cls-4" x1="184.6" y1="292.74" x2="184.6" y2="352.38"/><line class="cls-4" x1="232.72" y1="292.74" x2="232.72" y2="353.22"/><line class="cls-4" x1="213.04" y1="292.74" x2="252.4" y2="292.74"/><polyline class="cls-4" points="325.48 257.74 325.48 352.74 480.4 352.74 480.85 209.96"/><line class="cls-4" x1="360.28" y1="258.72" x2="480.28" y2="258.72"/><line class="cls-4" x1="325.48" y1="340.88" x2="480.28" y2="340.88"/><rect class="cls-4" x="359.8" y="290.04" width="84.12" height="19.98"/><line class="cls-4" x1="112.41" y1="657.06" x2="184.6" y2="657.06"/><line class="cls-4" x1="83.61" y1="491.22" x2="17.65" y2="491.22"/><line class="cls-4" x1="83.61" y1="657.34" x2="17.65" y2="657.34"/><line class="cls-4" x1="184.6" y1="491.22" x2="112.41" y2="491.22"/><line class="cls-4" x1="318.31" y1="491.22" x2="394.37" y2="491.22"/><line class="cls-4" x1="453.46" y1="738.18" x2="453.46" y2="657.06"/><line class="cls-6" x1="368.17" y1="259.08" x2="368.17" y2="289.94"/><line class="cls-6" x1="376.63" y1="259.08" x2="376.63" y2="289.94"/><line class="cls-6" x1="385.08" y1="259.08" x2="385.08" y2="289.94"/><line class="cls-6" x1="393.54" y1="259.08" x2="393.54" y2="289.94"/><line class="cls-6" x1="401.99" y1="259.08" x2="401.99" y2="289.94"/><line class="cls-6" x1="410.45" y1="259.08" x2="410.45" y2="289.94"/><line class="cls-6" x1="418.9" y1="259.08" x2="418.9" y2="289.94"/><line class="cls-6" x1="427.35" y1="259.08" x2="427.35" y2="289.94"/><line class="cls-6" x1="435.81" y1="259.08" x2="435.81" y2="289.94"/><line class="cls-6" x1="444.26" y1="259.08" x2="444.26" y2="289.94"/><line class="cls-6" x1="368.25" y1="310.02" x2="368.25" y2="340.88"/><polyline class="cls-6" points="359.8 340.88 359.8 310.02 343.16 340.88"/><line class="cls-6" x1="376.69" y1="310.02" x2="376.69" y2="340.88"/><line class="cls-6" x1="359.42" y1="301.6" x2="326.24" y2="301.6"/><line class="cls-6" x1="385.14" y1="310.02" x2="385.14" y2="340.88"/><line class="cls-6" x1="393.59" y1="310.02" x2="393.59" y2="340.88"/><line class="cls-6" x1="402.03" y1="310.02" x2="402.03" y2="340.88"/><line class="cls-6" x1="410.48" y1="310.02" x2="410.48" y2="340.88"/><line class="cls-6" x1="418.92" y1="310.02" x2="418.92" y2="340.88"/><line class="cls-6" x1="427.37" y1="310.02" x2="427.37" y2="340.88"/><line class="cls-6" x1="435.82" y1="310.02" x2="435.82" y2="340.88"/><line class="cls-6" x1="444.26" y1="310.02" x2="444.26" y2="340.88"/><polyline class="cls-6" points="689.08 1.74 689.08 102.78 328.87 102.78"/><line class="cls-6" x1="443.92" y1="296.56" x2="480.4" y2="296.56"/><line class="cls-6" x1="443.92" y1="303.49" x2="480.4" y2="303.49"/><line class="cls-6" x1="517.27" y1="549.34" x2="477.25" y2="549.34"/><line class="cls-6" x1="518.17" y1="540.82" x2="477.97" y2="540.82"/><line class="cls-6" x1="518.59" y1="532.3" x2="479.18" y2="532.3"/><line class="cls-6" x1="518.89" y1="523.78" x2="479.18" y2="523.78"/><line class="cls-6" x1="469.74" y1="491.51" x2="469.74" y2="523.78"/><polyline class="cls-6" points="478.26 491.51 478.26 523.78 520.45 491.22"/><line class="cls-6" x1="461.22" y1="491.21" x2="461.22" y2="523.78"/><line class="cls-6" x1="517.27" y1="557.86" x2="476.86" y2="557.86"/><line class="cls-6" x1="516.49" y1="566.38" x2="476.4" y2="566.38"/><line class="cls-6" x1="475.95" y1="574.9" x2="515.96" y2="575.14"/><line class="cls-4" x1="329.05" y1="118.86" x2="329.05" y2="3.44"/><rect class="cls-6" x="340.68" y="11.01" width="38.98" height="38.98" rx="7.16" ry="7.16" transform="translate(390.67 -329.67) rotate(90)"/><rect class="cls-6" x="389.84" y="11.01" width="38.98" height="38.98" rx="7.16" ry="7.16" transform="translate(439.83 -378.83) rotate(90)"/><rect class="cls-6" x="438.99" y="11.01" width="38.98" height="38.98" rx="7.16" ry="7.16" transform="translate(488.98 -427.98) rotate(90)"/><rect class="cls-6" x="488.15" y="11.01" width="38.98" height="38.98" rx="7.16" ry="7.16" transform="translate(538.14 -477.14) rotate(90)"/><rect class="cls-6" x="537.3" y="11.01" width="38.98" height="38.98" rx="7.16" ry="7.16" transform="translate(587.29 -526.29) rotate(90)"/><rect class="cls-6" x="586.46" y="11.01" width="38.98" height="38.98" rx="7.16" ry="7.16" transform="translate(636.45 -575.45) rotate(90)"/><rect class="cls-6" x="635.61" y="11.01" width="38.98" height="38.98" rx="7.16" ry="7.16" transform="translate(685.6 -624.6) rotate(90)"/><rect class="cls-6" x="340.64" y="56.31" width="38.98" height="38.98" rx="7.16" ry="7.16" transform="translate(435.93 -284.33) rotate(90)"/><rect class="cls-6" x="389.8" y="56.31" width="38.98" height="38.98" rx="7.16" ry="7.16" transform="translate(485.09 -333.49) rotate(90)"/><rect class="cls-6" x="438.95" y="56.31" width="38.98" height="38.98" rx="7.16" ry="7.16" transform="translate(534.24 -382.64) rotate(90)"/><rect class="cls-6" x="488.11" y="56.31" width="38.98" height="38.98" rx="7.16" ry="7.16" transform="translate(583.4 -431.8) rotate(90)"/><rect class="cls-6" x="537.26" y="56.31" width="38.98" height="38.98" rx="7.16" ry="7.16" transform="translate(632.55 -480.95) rotate(90)"/><rect class="cls-6" x="586.42" y="56.31" width="38.98" height="38.98" rx="7.16" ry="7.16" transform="translate(681.71 -530.11) rotate(90)"/><rect class="cls-6" x="635.57" y="56.31" width="38.98" height="38.98" rx="7.16" ry="7.16" transform="translate(730.86 -579.26) rotate(90)"/><line class="cls-4" x1="17.65" y1="220.62" x2="30.55" y2="220.62"/><line class="cls-4" x1="51.49" y1="220.62" x2="134.35" y2="220.62"/><line class="cls-4" x1="538.6" y1="657.06" x2="423.95" y2="657.06"/><polyline class="cls-2" points="423.17 491.22 480.4 491.22 520.45 491.22 515.96 575.14 683.45 563.84 770.49 640.68 741.91 283.48"/><polyline class="cls-4" points="662.8 340.08 480.4 352.74 480.4 491.22"/><line class="cls-4" x1="318.31" y1="657.06" x2="394.37" y2="657.06"/><line class="cls-5" x1="515.96" y1="657.06" x2="515.96" y2="575.42"/><line class="cls-4" x1="170.77" y1="437" x2="170.77" y2="491.22"/><line class="cls-4" x1="170.77" y1="353.22" x2="170.77" y2="407.82"/><line class="cls-4" x1="368.17" y1="437" x2="368.17" y2="491.22"/><line class="cls-4" x1="368.17" y1="353.22" x2="368.17" y2="407.82"/><polyline class="cls-4" points="461.22 523.76 478.26 523.76 474.85 588.8 515.11 588.8"/><polyline class="cls-6" points="519.53 508.52 478.26 523.78 496.45 491.22"/><polyline class="cls-4" points="329.05 118.86 329.05 209.96 691.27 209.96 691.27 282.92 782.47 282.92 782.47 2.72"/><polyline class="cls-4" points="134.35 353.22 134.35 207.62 280.12 207.62"/><line class="cls-4" x1="329.05" y1="209.96" x2="325.48" y2="209.96"/><line class="cls-4" x1="655.23" y1="210.94" x2="690.07" y2="646.08"/><line class="cls-6" x1="691.27" y1="209.96" x2="782.47" y2="209.96"/><line class="cls-6" x1="689.08" y1="102.78" x2="782.47" y2="209.96"/><line class="cls-6" x1="329.35" y1="107.24" x2="329.35" y2="198.26"/><line class="cls-3" x1="340.63" y1="103.19" x2="340.63" y2="209.8"/><line class="cls-3" x1="358.45" y1="103.19" x2="358.45" y2="209.8"/><line class="cls-3" x1="376.28" y1="103.19" x2="376.28" y2="209.8"/><line class="cls-3" x1="394.1" y1="103.19" x2="394.1" y2="209.8"/><line class="cls-3" x1="411.93" y1="103.19" x2="411.93" y2="209.8"/><line class="cls-3" x1="429.75" y1="103.19" x2="429.75" y2="209.8"/><line class="cls-3" x1="447.58" y1="103.19" x2="447.58" y2="209.8"/><line class="cls-3" x1="465.4" y1="103.19" x2="465.4" y2="209.8"/><line class="cls-3" x1="483.23" y1="103.19" x2="483.23" y2="209.8"/><line class="cls-3" x1="501.05" y1="103.19" x2="501.05" y2="209.8"/><line class="cls-3" x1="518.88" y1="103.19" x2="518.88" y2="209.8"/><line class="cls-3" x1="766.77" y1="192.15" x2="782.53" y2="192.15"/><line class="cls-3" x1="751.42" y1="174.32" x2="782.53" y2="174.32"/><line class="cls-3" x1="735.77" y1="156.5" x2="782.53" y2="156.5"/><line class="cls-3" x1="720.27" y1="138.67" x2="782.53" y2="138.67"/><line class="cls-3" x1="707.73" y1="124.18" x2="782.41" y2="124.18"/><line class="cls-3" x1="694.99" y1="109.68" x2="782.41" y2="109.68"/><line class="cls-3" x1="689.43" y1="95.19" x2="782.41" y2="95.19"/><line class="cls-3" x1="689.43" y1="80.7" x2="782.41" y2="80.7"/><line class="cls-3" x1="689.43" y1="66.2" x2="782.41" y2="66.2"/><line class="cls-3" x1="689.43" y1="51.71" x2="782.41" y2="51.71"/><line class="cls-3" x1="689.43" y1="37.22" x2="782.41" y2="37.22"/><line class="cls-3" x1="689.43" y1="22.72" x2="782.41" y2="22.72"/><line class="cls-3" x1="689.43" y1="8.23" x2="782.41" y2="8.23"/><line class="cls-3" x1="536.7" y1="103.19" x2="536.7" y2="209.8"/><line class="cls-3" x1="554.53" y1="103.19" x2="554.53" y2="209.8"/><line class="cls-3" x1="572.35" y1="103.19" x2="572.35" y2="209.8"/><line class="cls-3" x1="590.18" y1="103.19" x2="590.18" y2="209.8"/><line class="cls-3" x1="608" y1="103.19" x2="608" y2="209.8"/><line class="cls-3" x1="625.83" y1="103.19" x2="625.83" y2="209.8"/><line class="cls-3" x1="643.65" y1="103.19" x2="643.65" y2="209.8"/><line class="cls-3" x1="661.48" y1="103.19" x2="661.48" y2="209.8"/><line class="cls-3" x1="679.3" y1="103.19" x2="679.3" y2="209.8"/><line class="cls-3" x1="697.13" y1="282.95" x2="697.13" y2="112.02"/><line class="cls-3" x1="714.95" y1="282.95" x2="714.95" y2="132.47"/><line class="cls-3" x1="732.78" y1="282.95" x2="732.78" y2="153.17"/><line class="cls-3" x1="750.6" y1="282.95" x2="750.6" y2="173.64"/><line class="cls-3" x1="768.43" y1="282.95" x2="768.43" y2="194.12"/><line class="cls-3" x1="486.79" y1="209.96" x2="486.79" y2="352.29"/><line class="cls-3" x1="491.95" y1="209.96" x2="491.95" y2="351.64"/><line class="cls-3" x1="497.11" y1="209.96" x2="497.11" y2="351.64"/><line class="cls-3" x1="502.27" y1="209.96" x2="502.27" y2="351.22"/><line class="cls-3" x1="507.43" y1="209.96" x2="507.43" y2="350.72"/><line class="cls-3" x1="512.59" y1="209.96" x2="512.59" y2="350.72"/><line class="cls-3" x1="517.75" y1="209.96" x2="517.75" y2="350.14"/><line class="cls-3" x1="522.91" y1="209.96" x2="522.91" y2="350.16"/><line class="cls-3" x1="528.07" y1="209.96" x2="528.07" y2="349.38"/><line class="cls-3" x1="533.23" y1="209.96" x2="533.23" y2="349.16"/><line class="cls-3" x1="538.39" y1="209.96" x2="538.39" y2="348.84"/><line class="cls-3" x1="543.55" y1="209.96" x2="543.55" y2="347.96"/><line class="cls-3" x1="548.71" y1="209.96" x2="548.71" y2="348.08"/><line class="cls-3" x1="553.87" y1="209.96" x2="553.87" y2="347.6"/><line class="cls-3" x1="559.03" y1="209.96" x2="559.03" y2="347.12"/><line class="cls-3" x1="564.19" y1="209.96" x2="564.19" y2="347"/><line class="cls-3" x1="569.35" y1="209.96" x2="569.35" y2="346.52"/><line class="cls-3" x1="574.51" y1="209.96" x2="574.51" y2="346.04"/><line class="cls-3" x1="579.67" y1="209.96" x2="579.67" y2="345.68"/><line class="cls-3" x1="584.83" y1="209.96" x2="584.83" y2="345.51"/><line class="cls-3" x1="589.99" y1="209.96" x2="589.99" y2="345.08"/><line class="cls-3" x1="595.15" y1="209.96" x2="595.15" y2="344.77"/><line class="cls-3" x1="600.31" y1="209.96" x2="600.31" y2="344.6"/><line class="cls-3" x1="605.47" y1="209.96" x2="605.47" y2="344.21"/><line class="cls-3" x1="610.63" y1="209.96" x2="610.63" y2="343.7"/><line class="cls-3" x1="615.79" y1="209.96" x2="615.79" y2="343.28"/><line class="cls-3" x1="620.95" y1="209.96" x2="620.95" y2="343"/><line class="cls-3" x1="626.11" y1="209.96" x2="626.11" y2="342.55"/><line class="cls-3" x1="631.27" y1="209.96" x2="631.27" y2="342.32"/><line class="cls-3" x1="636.43" y1="209.96" x2="636.43" y2="341.91"/><line class="cls-3" x1="641.59" y1="209.96" x2="641.59" y2="341.55"/><line class="cls-3" x1="646.75" y1="209.96" x2="646.75" y2="341.23"/><line class="cls-3" x1="651.91" y1="209.96" x2="651.91" y2="340.58"/><line class="cls-3" x1="657.07" y1="235.87" x2="657.07" y2="340.58"/><line class="cls-3" x1="662.23" y1="298.62" x2="662.23" y2="340.08"/><line class="cls-3" x1="515.69" y1="598.69" x2="520.34" y2="656.91"/><line class="cls-3" x1="518.96" y1="574.9" x2="525.48" y2="656.43"/><line class="cls-3" x1="524.08" y1="574.24" x2="530.67" y2="656.66"/><line class="cls-3" x1="529.25" y1="574.24" x2="535.86" y2="656.88"/><line class="cls-3" x1="534.37" y1="573.5" x2="541.02" y2="656.66"/><line class="cls-3" x1="539.54" y1="573.5" x2="546.17" y2="656.43"/><line class="cls-3" x1="544.66" y1="572.85" x2="551.3" y2="655.83"/><line class="cls-3" x1="549.83" y1="572.85" x2="556.43" y2="655.33"/><line class="cls-3" x1="554.95" y1="572.16" x2="561.61" y2="655.33"/><line class="cls-3" x1="560.13" y1="572.16" x2="566.76" y2="655.05"/><line class="cls-3" x1="565.27" y1="571.81" x2="571.9" y2="654.69"/><line class="cls-3" x1="570.39" y1="571.12" x2="577.05" y2="654.36"/><line class="cls-3" x1="575.56" y1="571.12" x2="582.17" y2="653.7"/><line class="cls-3" x1="580.68" y1="570.42" x2="587.32" y2="653.45"/><line class="cls-3" x1="585.85" y1="570.42" x2="592.49" y2="653.33"/><line class="cls-3" x1="591" y1="570.07" x2="597.65" y2="653.24"/><line class="cls-3" x1="596.14" y1="569.6" x2="602.81" y2="653.05"/><line class="cls-3" x1="601.27" y1="569.1" x2="607.91" y2="652.13"/><line class="cls-3" x1="606.43" y1="568.88" x2="613.06" y2="651.76"/><line class="cls-3" x1="611.58" y1="568.7" x2="618.2" y2="651.4"/><line class="cls-3" x1="616.71" y1="568.04" x2="623.35" y2="651.03"/><line class="cls-3" x1="621.88" y1="568.04" x2="628.49" y2="650.67"/><line class="cls-3" x1="627.03" y1="567.8" x2="633.64" y2="650.31"/><line class="cls-3" x1="632.19" y1="567.56" x2="638.78" y2="649.95"/><line class="cls-3" x1="637.3" y1="566.78" x2="643.92" y2="649.59"/><line class="cls-3" x1="642.45" y1="566.48" x2="649.07" y2="649.23"/><line class="cls-3" x1="647.39" y1="566.36" x2="654.16" y2="648.87"/><line class="cls-3" x1="652.73" y1="565.64" x2="659.35" y2="648.36"/><line class="cls-3" x1="657.9" y1="565.64" x2="664.5" y2="648.14"/><line class="cls-3" x1="663.04" y1="565.19" x2="669.64" y2="647.68"/><line class="cls-3" x1="668.19" y1="564.92" x2="674.82" y2="647.79"/><line class="cls-3" x1="673.36" y1="564.8" x2="679.94" y2="647.06"/><line class="cls-3" x1="678.43" y1="563.96" x2="685.1" y2="647.06"/><line class="cls-3" x1="689.16" y1="568.36" x2="695.38" y2="646.08"/><line class="cls-3" x1="694.75" y1="573.5" x2="700.52" y2="645.62"/><line class="cls-3" x1="700.34" y1="578.74" x2="705.66" y2="645.26"/><line class="cls-3" x1="705.91" y1="583.66" x2="710.81" y2="644.9"/><line class="cls-3" x1="711.49" y1="588.8" x2="715.95" y2="644.54"/><line class="cls-3" x1="717" y1="593.02" x2="721.12" y2="644.54"/><line class="cls-3" x1="722.53" y1="597.43" x2="726.24" y2="643.82"/><line class="cls-3" x1="728.17" y1="603.32" x2="731.38" y2="643.45"/><line class="cls-3" x1="733.69" y1="607.61" x2="736.53" y2="643.06"/><line class="cls-3" x1="739.27" y1="612.74" x2="741.64" y2="642.28"/><line class="cls-3" x1="744.87" y1="618.06" x2="746.82" y2="642.36"/><line class="cls-3" x1="750.44" y1="622.97" x2="751.95" y2="641.84"/><line class="cls-3" x1="756" y1="627.8" x2="757.04" y2="640.81"/><line class="cls-3" x1="761.49" y1="631.74" x2="762.21" y2="640.81"/><g class="cls-8"><line class="cls-3" x1="680.77" y1="641.39" x2="901.55" y2="625.99"/><line class="cls-3" x1="680.41" y1="636.25" x2="901.19" y2="620.84"/><line class="cls-3" x1="680.05" y1="631.1" x2="900.83" y2="615.69"/><line class="cls-3" x1="679.69" y1="625.95" x2="900.47" y2="610.55"/><line class="cls-3" x1="679.33" y1="620.8" x2="900.11" y2="605.4"/><line class="cls-3" x1="678.97" y1="615.66" x2="899.75" y2="600.25"/><line class="cls-3" x1="678.61" y1="610.51" x2="899.39" y2="595.1"/><line class="cls-3" x1="678.25" y1="605.36" x2="899.03" y2="589.96"/><line class="cls-3" x1="677.89" y1="600.21" x2="898.67" y2="584.81"/><line class="cls-3" x1="677.53" y1="595.07" x2="898.32" y2="579.66"/><line class="cls-3" x1="677.18" y1="589.92" x2="897.96" y2="574.51"/><line class="cls-3" x1="676.82" y1="584.77" x2="897.6" y2="569.37"/><line class="cls-3" x1="676.46" y1="579.63" x2="897.24" y2="564.22"/><line class="cls-3" x1="676.1" y1="574.48" x2="896.88" y2="559.07"/><line class="cls-3" x1="675.74" y1="569.33" x2="896.52" y2="553.93"/><line class="cls-3" x1="675.38" y1="564.18" x2="896.16" y2="548.78"/><line class="cls-3" x1="675.02" y1="559.04" x2="895.8" y2="543.63"/><line class="cls-3" x1="674.66" y1="553.89" x2="895.44" y2="538.48"/><line class="cls-3" x1="674.3" y1="548.74" x2="895.08" y2="533.34"/><line class="cls-3" x1="673.94" y1="543.59" x2="894.72" y2="528.19"/><line class="cls-3" x1="673.58" y1="538.45" x2="894.36" y2="523.04"/><line class="cls-3" x1="673.22" y1="533.3" x2="894.01" y2="517.89"/><line class="cls-3" x1="672.87" y1="528.15" x2="893.65" y2="512.75"/><line class="cls-3" x1="672.51" y1="523" x2="893.29" y2="507.6"/><line class="cls-3" x1="672.15" y1="517.86" x2="892.93" y2="502.45"/><line class="cls-3" x1="671.79" y1="512.71" x2="892.57" y2="497.3"/><line class="cls-3" x1="671.43" y1="507.56" x2="892.21" y2="492.16"/><line class="cls-3" x1="671.07" y1="502.41" x2="891.85" y2="487.01"/><line class="cls-3" x1="670.71" y1="497.27" x2="891.49" y2="481.86"/><line class="cls-3" x1="670.35" y1="492.12" x2="891.13" y2="476.71"/><line class="cls-3" x1="669.99" y1="486.97" x2="890.77" y2="471.57"/><line class="cls-3" x1="669.63" y1="481.83" x2="890.41" y2="466.42"/><line class="cls-3" x1="669.27" y1="476.68" x2="890.05" y2="461.27"/><line class="cls-3" x1="668.91" y1="471.53" x2="889.7" y2="456.12"/><line class="cls-3" x1="668.55" y1="466.38" x2="889.34" y2="450.98"/><line class="cls-3" x1="668.2" y1="461.24" x2="888.98" y2="445.83"/><line class="cls-3" x1="667.84" y1="456.09" x2="888.62" y2="440.68"/><line class="cls-3" x1="667.48" y1="450.94" x2="888.26" y2="435.54"/><line class="cls-3" x1="667.12" y1="445.79" x2="887.9" y2="430.39"/><line class="cls-3" x1="666.76" y1="440.65" x2="887.54" y2="425.24"/><line class="cls-3" x1="666.4" y1="435.5" x2="887.18" y2="420.09"/><line class="cls-3" x1="666.04" y1="430.35" x2="886.82" y2="414.95"/><line class="cls-3" x1="665.68" y1="425.2" x2="886.46" y2="409.8"/><line class="cls-3" x1="665.32" y1="420.06" x2="886.1" y2="404.65"/><line class="cls-3" x1="664.96" y1="414.91" x2="885.74" y2="399.5"/><line class="cls-3" x1="664.6" y1="409.76" x2="885.39" y2="394.36"/><line class="cls-3" x1="664.24" y1="404.61" x2="885.03" y2="389.21"/><line class="cls-3" x1="663.89" y1="399.47" x2="884.67" y2="384.06"/><line class="cls-3" x1="663.53" y1="394.32" x2="884.31" y2="378.91"/><line class="cls-3" x1="663.17" y1="389.17" x2="883.95" y2="373.77"/><line class="cls-3" x1="662.81" y1="384.02" x2="883.59" y2="368.62"/><line class="cls-3" x1="662.45" y1="378.88" x2="883.23" y2="363.47"/><line class="cls-3" x1="662.09" y1="373.73" x2="882.87" y2="358.32"/><line class="cls-3" x1="661.73" y1="368.58" x2="882.51" y2="353.18"/><line class="cls-3" x1="661.37" y1="363.44" x2="882.15" y2="348.03"/><line class="cls-3" x1="661.01" y1="358.29" x2="881.79" y2="342.88"/><line class="cls-3" x1="660.65" y1="353.14" x2="881.43" y2="337.73"/><line class="cls-3" x1="660.29" y1="347.99" x2="881.08" y2="332.59"/><line class="cls-3" x1="659.93" y1="342.85" x2="880.72" y2="327.44"/><line class="cls-3" x1="659.58" y1="337.7" x2="880.36" y2="322.29"/><line class="cls-3" x1="659.22" y1="332.55" x2="880" y2="317.15"/><line class="cls-3" x1="658.86" y1="327.4" x2="879.64" y2="312"/><line class="cls-3" x1="658.5" y1="322.26" x2="879.28" y2="306.85"/><line class="cls-3" x1="658.14" y1="317.11" x2="878.92" y2="301.7"/><line class="cls-3" x1="657.78" y1="311.96" x2="878.56" y2="296.56"/><line class="cls-3" x1="657.42" y1="306.81" x2="878.2" y2="291.41"/><line class="cls-3" x1="657.06" y1="301.67" x2="877.84" y2="286.26"/><line class="cls-3" x1="656.7" y1="296.52" x2="877.48" y2="281.11"/><line class="cls-3" x1="656.34" y1="291.37" x2="877.12" y2="275.97"/><line class="cls-3" x1="655.98" y1="286.22" x2="876.77" y2="270.82"/><line class="cls-3" x1="655.62" y1="281.08" x2="876.41" y2="265.67"/><line class="cls-3" x1="655.27" y1="275.93" x2="876.05" y2="260.52"/><line class="cls-3" x1="654.91" y1="270.78" x2="875.69" y2="255.38"/><line class="cls-3" x1="654.55" y1="265.63" x2="875.33" y2="250.23"/><line class="cls-3" x1="654.19" y1="260.49" x2="874.97" y2="245.08"/><line class="cls-3" x1="653.83" y1="255.34" x2="874.61" y2="239.93"/><line class="cls-3" x1="653.47" y1="250.19" x2="874.25" y2="234.79"/><line class="cls-3" x1="653.11" y1="245.05" x2="873.89" y2="229.64"/><line class="cls-3" x1="652.75" y1="239.9" x2="873.53" y2="224.49"/><line class="cls-3" x1="652.39" y1="234.75" x2="873.17" y2="219.35"/><line class="cls-3" x1="652.03" y1="229.6" x2="872.81" y2="214.2"/><line class="cls-3" x1="651.67" y1="224.46" x2="872.46" y2="209.05"/><line class="cls-3" x1="651.31" y1="219.31" x2="872.1" y2="203.9"/><line class="cls-3" x1="650.96" y1="214.16" x2="871.74" y2="198.76"/><line class="cls-3" x1="650.6" y1="209.01" x2="871.38" y2="193.61"/><line class="cls-3" x1="650.24" y1="203.87" x2="871.02" y2="188.46"/><line class="cls-3" x1="649.88" y1="198.72" x2="870.66" y2="183.31"/><line class="cls-3" x1="649.52" y1="193.57" x2="870.3" y2="178.17"/><line class="cls-3" x1="649.16" y1="188.42" x2="869.94" y2="173.02"/><line class="cls-3" x1="648.8" y1="183.28" x2="869.58" y2="167.87"/><line class="cls-3" x1="648.44" y1="178.13" x2="869.22" y2="162.72"/><line class="cls-3" x1="648.08" y1="172.98" x2="868.86" y2="157.58"/><line class="cls-3" x1="647.72" y1="167.83" x2="868.5" y2="152.43"/><line class="cls-3" x1="647.36" y1="162.69" x2="868.15" y2="147.28"/><line class="cls-3" x1="647" y1="157.54" x2="867.79" y2="142.13"/><line class="cls-3" x1="646.65" y1="152.39" x2="867.43" y2="136.99"/><line class="cls-3" x1="646.29" y1="147.25" x2="867.07" y2="131.84"/><line class="cls-3" x1="645.93" y1="142.1" x2="866.71" y2="126.69"/><line class="cls-3" x1="645.57" y1="136.95" x2="866.35" y2="121.54"/><line class="cls-3" x1="645.21" y1="131.8" x2="865.99" y2="116.4"/><line class="cls-3" x1="644.85" y1="126.66" x2="865.63" y2="111.25"/><line class="cls-3" x1="644.49" y1="121.51" x2="865.27" y2="106.1"/><line class="cls-3" x1="644.13" y1="116.36" x2="864.91" y2="100.96"/><line class="cls-3" x1="643.77" y1="111.21" x2="864.55" y2="95.81"/><line class="cls-3" x1="643.41" y1="106.07" x2="864.19" y2="90.66"/><line class="cls-3" x1="643.05" y1="100.92" x2="863.84" y2="85.51"/><line class="cls-3" x1="642.69" y1="95.77" x2="863.48" y2="80.37"/><line class="cls-3" x1="642.34" y1="90.62" x2="863.12" y2="75.22"/><line class="cls-3" x1="641.98" y1="85.48" x2="862.76" y2="70.07"/><line class="cls-3" x1="641.62" y1="80.33" x2="862.4" y2="64.92"/><line class="cls-3" x1="641.26" y1="75.18" x2="862.04" y2="59.78"/><line class="cls-3" x1="640.9" y1="70.03" x2="861.68" y2="54.63"/><line class="cls-3" x1="640.54" y1="64.89" x2="861.32" y2="49.48"/><line class="cls-3" x1="640.18" y1="59.74" x2="860.96" y2="44.33"/><line class="cls-3" x1="639.82" y1="54.59" x2="860.6" y2="39.19"/><line class="cls-3" x1="639.46" y1="49.44" x2="860.24" y2="34.04"/><line class="cls-3" x1="639.1" y1="44.3" x2="859.88" y2="28.89"/><line class="cls-3" x1="638.74" y1="39.15" x2="859.52" y2="23.74"/><line class="cls-3" x1="638.38" y1="34" x2="859.17" y2="18.6"/><line class="cls-3" x1="638.03" y1="28.86" x2="858.81" y2="13.45"/><line class="cls-3" x1="637.67" y1="23.71" x2="858.45" y2="8.3"/><line class="cls-3" x1="637.31" y1="18.56" x2="858.09" y2="3.15"/></g><polygon class="cls-7" points="1.53 1.42 329.05 1.42 329.05 209.96 480.85 209.96 480.4 352.74 17.65 353.22 17.65 220.62 1.53 1.42"/></svg>