<?xml version="1.0" encoding="UTF-8"?><svg id="Piano_secondo_A" xmlns="http://www.w3.org/2000/svg" viewBox="0 0 902.13 817.03"><defs><style>.cls-1{stroke-linejoin:bevel;}.cls-1,.cls-2,.cls-3{stroke:#ccc;stroke-linecap:square;}.cls-1,.cls-2,.cls-3,.cls-4{fill:none;}.cls-1,.cls-2,.cls-4{stroke-width:2.83px;}.cls-2,.cls-3,.cls-4{stroke-miterlimit:10;}.cls-3{stroke-width:.71px;}.cls-4{stroke:#000;stroke-linecap:round;}</style></defs><g id="Linee"><path class="cls-3" d="M325.48,309.7s34.96,0,34.32,0l-34.32,21.83"/><path class="cls-1" d="M796.96,309.89h0c-14.99,19.85-44.74,19.69-59.94,0h59.94Z"/><polyline class="cls-2" points="629.2 650.3 900.6 631.29 848.98 1.42 1.53 1.42 17.65 220.3 17.65 815.61 453.46 815.61 453.46 737.86 538.6 737.86 538.6 656.74 605.98 651.94"/><polyline class="cls-2" points="538.81 684.02 579.19 681.15 579.19 699.88 658.07 694.31 658.07 648.26"/><line class="cls-2" x1="198.97" y1="118.54" x2="10.57" y2="118.54"/><polyline class="cls-2" points="17.65 352.9 280.12 352.63 280.12 292.42"/><line class="cls-2" x1="184.6" y1="292.42" x2="184.6" y2="352.06"/><line class="cls-2" x1="232.72" y1="292.42" x2="232.72" y2="352.67"/><line class="cls-2" x1="213.04" y1="292.42" x2="252.4" y2="292.42"/><polyline class="cls-2" points="325.48 257.42 325.48 352.58 480.4 352.42 480.85 258.4 502.03 258.4"/><line class="cls-2" x1="360.28" y1="258.4" x2="480.85" y2="258.4"/><line class="cls-2" x1="325.48" y1="340.56" x2="480.28" y2="340.56"/><rect class="cls-2" x="359.8" y="289.72" width="84.12" height="19.98"/><line class="cls-2" x1="443.07" y1="656.74" x2="476.42" y2="656.74"/><line class="cls-2" x1="82.09" y1="656.74" x2="215.17" y2="656.74"/><line class="cls-2" x1="53.29" y1="490.9" x2="17.65" y2="490.9"/><line class="cls-2" x1="53.29" y1="657.02" x2="17.65" y2="657.02"/><line class="cls-2" x1="218.32" y1="490.9" x2="82.09" y2="490.9"/><line class="cls-2" x1="304.33" y1="490.9" x2="247.12" y2="490.9"/><polyline class="cls-2" points="388.33 490.9 480.4 490.9 520.45 490.9"/><line class="cls-2" x1="736.78" y1="339.76" x2="736.78" y2="250.6"/><line class="cls-2" x1="737.29" y1="339.76" x2="876.33" y2="339.76"/><polyline class="cls-2" points="662.8 258.4 662.8 339.76 704.8 339.76"/><line class="cls-2" x1="797.2" y1="250.6" x2="797.2" y2="339.22"/><line class="cls-2" x1="724.57" y1="502.9" x2="773.56" y2="502.9"/><line class="cls-2" x1="453.46" y1="737.86" x2="453.46" y2="656.74"/><line class="cls-3" x1="368.17" y1="258.76" x2="368.17" y2="289.62"/><line class="cls-3" x1="376.63" y1="258.76" x2="376.63" y2="289.62"/><line class="cls-3" x1="385.08" y1="258.76" x2="385.08" y2="289.62"/><line class="cls-3" x1="393.54" y1="258.76" x2="393.54" y2="289.62"/><line class="cls-3" x1="401.99" y1="258.76" x2="401.99" y2="289.62"/><line class="cls-3" x1="410.44" y1="258.76" x2="410.44" y2="289.62"/><line class="cls-3" x1="418.9" y1="258.76" x2="418.9" y2="289.62"/><line class="cls-3" x1="427.35" y1="258.76" x2="427.35" y2="289.62"/><line class="cls-3" x1="435.81" y1="258.76" x2="435.81" y2="289.62"/><line class="cls-3" x1="444.26" y1="258.76" x2="444.26" y2="289.62"/><line class="cls-3" x1="368.25" y1="309.7" x2="368.25" y2="340.56"/><polyline class="cls-3" points="359.8 340.56 359.8 309.7 343.16 340.56"/><line class="cls-3" x1="376.69" y1="309.7" x2="376.69" y2="340.56"/><line class="cls-3" x1="359.42" y1="301.28" x2="326.24" y2="301.28"/><line class="cls-3" x1="385.14" y1="309.7" x2="385.14" y2="340.56"/><line class="cls-3" x1="393.58" y1="309.7" x2="393.58" y2="340.56"/><line class="cls-3" x1="402.03" y1="309.7" x2="402.03" y2="340.56"/><line class="cls-3" x1="410.48" y1="309.7" x2="410.48" y2="340.56"/><line class="cls-3" x1="418.92" y1="309.7" x2="418.92" y2="340.56"/><line class="cls-3" x1="427.37" y1="309.7" x2="427.37" y2="340.56"/><line class="cls-3" x1="435.82" y1="309.7" x2="435.82" y2="340.56"/><line class="cls-3" x1="444.26" y1="309.7" x2="444.26" y2="340.56"/><line class="cls-3" x1="736.9" y1="301.21" x2="767.08" y2="301.21"/><line class="cls-3" x1="736.9" y1="292.75" x2="767.08" y2="292.75"/><line class="cls-3" x1="736.9" y1="284.3" x2="767.08" y2="284.3"/><line class="cls-3" x1="736.9" y1="275.84" x2="767.08" y2="275.84"/><line class="cls-3" x1="736.9" y1="267.39" x2="767.08" y2="267.39"/><line class="cls-3" x1="736.9" y1="258.93" x2="767.08" y2="258.93"/><line class="cls-3" x1="767.2" y1="301.21" x2="797.38" y2="301.21"/><line class="cls-3" x1="767.2" y1="292.75" x2="797.38" y2="292.75"/><line class="cls-3" x1="767.2" y1="284.3" x2="797.38" y2="284.3"/><line class="cls-3" x1="767.2" y1="275.84" x2="797.38" y2="275.84"/><line class="cls-3" x1="767.2" y1="267.39" x2="797.38" y2="267.39"/><line class="cls-3" x1="767.2" y1="258.93" x2="797.38" y2="258.93"/><line class="cls-3" x1="689.08" y1="102.46" x2="689.08" y2="1.42"/><line class="cls-3" x1="689.08" y1="153.5" x2="689.08" y2="208.64"/><polyline class="cls-3" points="329.05 102.46 689.08 102.46 689.08 131.06"/><line class="cls-1" x1="766.99" y1="250.48" x2="766.99" y2="309.76"/><line class="cls-3" x1="443.92" y1="296.24" x2="480.4" y2="296.24"/><line class="cls-3" x1="443.92" y1="303.18" x2="480.4" y2="303.18"/><line class="cls-3" x1="517.27" y1="549.02" x2="477.25" y2="549.02"/><line class="cls-3" x1="518.17" y1="540.5" x2="477.97" y2="540.5"/><line class="cls-3" x1="518.59" y1="531.98" x2="479.18" y2="531.98"/><line class="cls-3" x1="518.89" y1="523.46" x2="479.18" y2="523.46"/><line class="cls-3" x1="517.27" y1="557.54" x2="476.85" y2="557.54"/><line class="cls-3" x1="516.49" y1="566.06" x2="476.4" y2="566.06"/><line class="cls-2" x1="552.65" y1="613.72" x2="550.36" y2="572.75"/><line class="cls-3" x1="544.16" y1="613.88" x2="541.85" y2="572.68"/><line class="cls-3" x1="535.63" y1="614.08" x2="533.36" y2="573.47"/><line class="cls-3" x1="527.14" y1="614.96" x2="524.83" y2="573.62"/><line class="cls-3" x1="518.63" y1="615.5" x2="516.34" y2="574.58"/><polyline class="cls-3" points="475.95 574.58 515.96 574.82 474.91 592.7"/><polyline class="cls-2" points="663.13 303.18 704.8 303.18 704.8 339.76"/><line class="cls-2" x1="737.29" y1="384.7" x2="879.55" y2="384.7"/><line class="cls-2" x1="862.24" y1="502.78" x2="889.72" y2="502.78"/><line class="cls-2" x1="694.72" y1="502.78" x2="675.76" y2="502.78"/><polyline class="cls-2" points="232.36 118.54 329.05 118.54 329.05 2.72"/><line class="cls-3" x1="573.73" y1="208.64" x2="688.75" y2="208.64"/><line class="cls-3" x1="538.33" y1="208.64" x2="550.93" y2="208.64"/><polyline class="cls-3" points="372.07 188.3 372.07 208.64 515.4 208.64"/><line class="cls-3" x1="372.07" y1="102.46" x2="372.07" y2="154.58"/><rect class="cls-3" x="340.68" y="10.69" width="38.98" height="38.98" rx="7.16" ry="7.16" transform="translate(390.35 -329.99) rotate(90)"/><rect class="cls-3" x="389.84" y="10.69" width="38.98" height="38.98" rx="7.16" ry="7.16" transform="translate(439.51 -379.15) rotate(90)"/><rect class="cls-3" x="438.99" y="10.69" width="38.98" height="38.98" rx="7.16" ry="7.16" transform="translate(488.66 -428.3) rotate(90)"/><rect class="cls-3" x="488.15" y="10.69" width="38.98" height="38.98" rx="7.16" ry="7.16" transform="translate(537.82 -477.46) rotate(90)"/><rect class="cls-3" x="537.3" y="10.69" width="38.98" height="38.98" rx="7.16" ry="7.16" transform="translate(586.97 -526.61) rotate(90)"/><rect class="cls-3" x="586.46" y="10.69" width="38.98" height="38.98" rx="7.16" ry="7.16" transform="translate(636.13 -575.77) rotate(90)"/><rect class="cls-3" x="635.61" y="10.69" width="38.98" height="38.98" rx="7.16" ry="7.16" transform="translate(685.28 -624.92) rotate(90)"/><rect class="cls-3" x="340.64" y="55.99" width="38.98" height="38.98" rx="7.16" ry="7.16" transform="translate(435.61 -284.65) rotate(90)"/><rect class="cls-3" x="389.8" y="55.99" width="38.98" height="38.98" rx="7.16" ry="7.16" transform="translate(484.77 -333.8) rotate(90)"/><rect class="cls-3" x="438.95" y="55.99" width="38.98" height="38.98" rx="7.16" ry="7.16" transform="translate(533.92 -382.96) rotate(90)"/><rect class="cls-3" x="488.11" y="55.99" width="38.98" height="38.98" rx="7.16" ry="7.16" transform="translate(583.08 -432.11) rotate(90)"/><rect class="cls-3" x="537.26" y="55.99" width="38.98" height="38.98" rx="7.16" ry="7.16" transform="translate(632.23 -481.27) rotate(90)"/><rect class="cls-3" x="586.42" y="55.99" width="38.98" height="38.98" rx="7.16" ry="7.16" transform="translate(681.39 -530.42) rotate(90)"/><rect class="cls-3" x="635.57" y="55.99" width="38.98" height="38.98" rx="7.16" ry="7.16" transform="translate(730.54 -579.58) rotate(90)"/><line class="cls-2" x1="737.29" y1="216.92" x2="797.38" y2="216.92"/><line class="cls-2" x1="846.58" y1="217.34" x2="866.53" y2="217.34"/><line class="cls-2" x1="17.65" y1="220.3" x2="167.17" y2="220.3"/><rect class="cls-3" x="168.61" y="219.23" width="23.88" height="71.55"/><rect class="cls-3" x="168.61" y="118.54" width="23.88" height="66.64"/><line class="cls-2" x1="251.38" y1="434.9" x2="253.91" y2="490.46"/><line class="cls-2" x1="247.63" y1="352.9" x2="250.11" y2="407.14"/><polyline class="cls-2" points="325.48 352.58 325.48 443.64 415.3 443.64"/><line class="cls-2" x1="479.89" y1="443.64" x2="443.07" y2="443.64"/><line class="cls-2" x1="538.6" y1="656.74" x2="500.3" y2="656.74"/><line class="cls-2" x1="689.08" y1="258.39" x2="704.8" y2="258.39"/><polyline class="cls-2" points="680.5 563.72 515.96 574.82 520.45 490.9"/><polyline class="cls-2" points="552.65 613.72 473.59 618.98 480.4 490.9 480.4 352.42 662.8 339.76 687.01 646.13"/><line class="cls-3" x1="473.59" y1="618.98" x2="515.96" y2="574.82"/><polyline class="cls-2" points="189.97 2.78 189.97 76.57 231.73 76.57 231.73 85.7"/><polyline class="cls-2" points="731.35 593.42 717.79 423.2 737.29 423.2"/><line class="cls-2" x1="333.13" y1="490.9" x2="359.53" y2="490.9"/><line class="cls-2" x1="243.97" y1="656.74" x2="359.53" y2="656.74"/><line class="cls-2" x1="388.33" y1="656.74" x2="412.21" y2="656.74"/><line class="cls-2" x1="515.96" y1="574.88" x2="513.65" y2="616.3"/></g><polygon class="cls-4" points="1.53 1.42 17.65 220.3 17.65 352.9 480.4 352.42 480.85 258.4 689.08 258.4 689.08 1.42 1.53 1.42"/></svg>