<?xml version="1.0" encoding="UTF-8"?><svg id="Piano_terra_C" xmlns="http://www.w3.org/2000/svg" viewBox="0 0 824.42 817.03"><defs><style>.cls-1{stroke-linejoin:bevel;}.cls-1,.cls-2,.cls-3{stroke:#ccc;stroke-linecap:square;}.cls-1,.cls-2,.cls-3,.cls-4{fill:none;}.cls-1,.cls-2,.cls-4{stroke-width:2.83px;}.cls-2,.cls-3,.cls-4{stroke-miterlimit:10;}.cls-3{stroke-width:.71px;}.cls-4{stroke:#000;stroke-linecap:round;}</style></defs><path class="cls-3" d="M247.77,309.7s34.96,0,34.32,0l-34.32,21.83"/><path class="cls-1" d="M719.25,309.89h0c-14.99,19.85-44.74,19.69-59.94,0h59.94Z"/><polygon class="cls-2" points="1.53 3.7 17.49 220.3 17.49 815.62 375.75 815.62 375.75 737.86 460.89 737.86 460.89 656.74 822.89 631.29 771.27 1.42 1.53 3.7"/><line class="cls-2" x1="107.31" y1="3.39" x2="107.31" y2="40.3"/><polyline class="cls-2" points="107.31 59.98 107.31 118.51 94.65 118.51"/><line class="cls-2" x1="70.89" y1="118.54" x2="10.05" y2="118.54"/><polyline class="cls-2" points="17.49 352.9 202.41 352.9 202.41 292.42"/><line class="cls-2" x1="106.89" y1="292.42" x2="106.89" y2="352.06"/><line class="cls-2" x1="155.01" y1="292.42" x2="155.01" y2="352.9"/><line class="cls-2" x1="135.33" y1="292.42" x2="174.69" y2="292.42"/><polyline class="cls-2" points="247.77 291.82 247.77 352.42 402.69 352.42 402.69 246.46 455.13 246.46"/><line class="cls-2" x1="282.57" y1="258.4" x2="402.57" y2="258.4"/><line class="cls-2" x1="247.77" y1="340.56" x2="402.57" y2="340.56"/><rect class="cls-2" x="282.09" y="289.72" width="84.12" height="19.98"/><polyline class="cls-2" points="398.44 599.98 398.44 570.7 402.69 490.9 402.69 352.42 585.09 339.76 609.3 646.14"/><line class="cls-2" x1="278.13" y1="656.74" x2="398.44" y2="656.74"/><line class="cls-2" x1="100.4" y1="656.74" x2="254.85" y2="656.74"/><line class="cls-2" x1="17.49" y1="656.74" x2="76.76" y2="656.74"/><line class="cls-2" x1="76.76" y1="490.9" x2="17.55" y2="490.9"/><line class="cls-2" x1="254.85" y1="490.9" x2="100.4" y2="490.9"/><line class="cls-2" x1="402.69" y1="490.9" x2="278.49" y2="490.9"/><line class="cls-2" x1="659.07" y1="339.76" x2="659.07" y2="250.6"/><polyline class="cls-2" points="539.25 246.46 585.09 246.46 585.09 339.76 798.43 339.76"/><line class="cls-2" x1="719.49" y1="250.6" x2="719.49" y2="339.22"/><line class="cls-2" x1="689.28" y1="502.36" x2="689.28" y2="339.76"/><line class="cls-2" x1="675.03" y1="502.9" x2="754.77" y2="502.9"/><line class="cls-2" x1="398.44" y1="656.74" x2="412.21" y2="656.74"/><line class="cls-2" x1="375.75" y1="737.86" x2="375.75" y2="656.74"/><polyline class="cls-2" points="441.09 570.7 441.09 656.74 460.89 656.74"/><polyline class="cls-2" points="121.26 3.35 121.26 33.46 253.51 33.46 253.51 2.95"/><line class="cls-3" x1="143.61" y1="3.28" x2="143.61" y2="33.46"/><line class="cls-3" x1="152.06" y1="3.28" x2="152.06" y2="33.46"/><line class="cls-3" x1="160.51" y1="3.28" x2="160.51" y2="33.46"/><line class="cls-3" x1="168.97" y1="3.28" x2="168.97" y2="33.46"/><line class="cls-3" x1="177.42" y1="3.28" x2="177.42" y2="33.46"/><line class="cls-3" x1="185.88" y1="3.28" x2="185.88" y2="33.46"/><line class="cls-3" x1="194.33" y1="3.28" x2="194.33" y2="33.46"/><line class="cls-3" x1="202.79" y1="3.28" x2="202.79" y2="33.46"/><line class="cls-3" x1="211.24" y1="3.28" x2="211.24" y2="33.46"/><line class="cls-3" x1="219.7" y1="3.28" x2="219.7" y2="33.46"/><line class="cls-3" x1="228.15" y1="3.28" x2="228.15" y2="33.46"/><line class="cls-3" x1="236.61" y1="3.28" x2="236.61" y2="33.46"/><line class="cls-3" x1="245.06" y1="3.28" x2="245.06" y2="33.46"/><line class="cls-3" x1="290.46" y1="258.76" x2="290.46" y2="289.62"/><line class="cls-3" x1="298.91" y1="258.76" x2="298.91" y2="289.62"/><line class="cls-3" x1="307.37" y1="258.76" x2="307.37" y2="289.62"/><line class="cls-3" x1="315.82" y1="258.76" x2="315.82" y2="289.62"/><line class="cls-3" x1="324.28" y1="258.76" x2="324.28" y2="289.62"/><line class="cls-3" x1="332.73" y1="258.76" x2="332.73" y2="289.62"/><line class="cls-3" x1="341.19" y1="258.76" x2="341.19" y2="289.62"/><line class="cls-3" x1="349.64" y1="258.76" x2="349.64" y2="289.62"/><line class="cls-3" x1="358.09" y1="258.76" x2="358.09" y2="289.62"/><line class="cls-3" x1="366.55" y1="258.76" x2="366.55" y2="289.62"/><line class="cls-3" x1="290.53" y1="309.7" x2="290.53" y2="340.56"/><polyline class="cls-3" points="282.09 340.56 282.09 309.7 265.45 340.56"/><line class="cls-3" x1="298.98" y1="309.7" x2="298.98" y2="340.56"/><line class="cls-3" x1="281.7" y1="301.29" x2="248.53" y2="301.29"/><line class="cls-3" x1="307.42" y1="309.7" x2="307.42" y2="340.56"/><line class="cls-3" x1="315.87" y1="309.7" x2="315.87" y2="340.56"/><line class="cls-3" x1="324.32" y1="309.7" x2="324.32" y2="340.56"/><line class="cls-3" x1="332.76" y1="309.7" x2="332.76" y2="340.56"/><line class="cls-3" x1="341.21" y1="309.7" x2="341.21" y2="340.56"/><line class="cls-3" x1="349.66" y1="309.7" x2="349.66" y2="340.56"/><line class="cls-3" x1="358.1" y1="309.7" x2="358.1" y2="340.56"/><line class="cls-3" x1="366.55" y1="309.7" x2="366.55" y2="340.56"/><line class="cls-3" x1="576.14" y1="354.64" x2="404.82" y2="354.64"/><line class="cls-3" x1="581.22" y1="346.18" x2="497.43" y2="346.18"/><line class="cls-3" x1="571.17" y1="363.1" x2="412.89" y2="363.1"/><line class="cls-3" x1="565.96" y1="371.56" x2="420.95" y2="371.56"/><line class="cls-3" x1="560.91" y1="380.02" x2="429.19" y2="380.02"/><line class="cls-3" x1="555.75" y1="388.48" x2="437.46" y2="388.48"/><line class="cls-3" x1="550.78" y1="396.94" x2="445.44" y2="396.94"/><line class="cls-3" x1="545.8" y1="405.4" x2="453.48" y2="405.4"/><line class="cls-3" x1="540.45" y1="413.86" x2="462.09" y2="413.86"/><line class="cls-3" x1="534.82" y1="422.32" x2="469.81" y2="422.32"/><line class="cls-3" x1="530.61" y1="430.78" x2="477.9" y2="430.78"/><line class="cls-3" x1="492.96" y1="446.42" x2="492.96" y2="483.82"/><line class="cls-3" x1="484.5" y1="437.73" x2="484.5" y2="497.85"/><line class="cls-3" x1="476.04" y1="428.8" x2="476.04" y2="511.7"/><line class="cls-3" x1="467.58" y1="419.99" x2="467.58" y2="526.24"/><line class="cls-3" x1="459.12" y1="411.18" x2="459.12" y2="540.44"/><line class="cls-3" x1="450.66" y1="402.72" x2="450.66" y2="553.93"/><line class="cls-3" x1="442.2" y1="393.47" x2="442.2" y2="568.84"/><line class="cls-3" x1="433.74" y1="384.7" x2="433.74" y2="570.7"/><line class="cls-3" x1="425.28" y1="375.95" x2="425.28" y2="570.7"/><line class="cls-3" x1="416.82" y1="367.14" x2="416.82" y2="570.7"/><line class="cls-3" x1="408.36" y1="358.33" x2="408.36" y2="570.7"/><line class="cls-3" x1="525.15" y1="439.24" x2="486.09" y2="439.24"/><line class="cls-3" x1="520.17" y1="447.7" x2="494.41" y2="447.7"/><line class="cls-3" x1="524.1" y1="477.91" x2="524.1" y2="441.17"/><line class="cls-3" x1="532.47" y1="486.77" x2="532.47" y2="427.21"/><line class="cls-3" x1="540.85" y1="495.78" x2="540.85" y2="413.86"/><line class="cls-3" x1="549.23" y1="504.53" x2="549.23" y2="399.37"/><line class="cls-3" x1="557.61" y1="513.28" x2="557.61" y2="385.44"/><line class="cls-3" x1="565.99" y1="522.03" x2="565.99" y2="371.56"/><line class="cls-3" x1="574.37" y1="530.78" x2="574.37" y2="358.33"/><line class="cls-3" x1="582.75" y1="539.53" x2="582.75" y2="343.64"/><line class="cls-3" x1="591.13" y1="547.62" x2="591.13" y2="418.39"/><line class="cls-3" x1="450.93" y1="553.93" x2="596.37" y2="553.93"/><line class="cls-3" x1="446.31" y1="562.38" x2="566.61" y2="562.38"/><line class="cls-3" x1="456.21" y1="545.48" x2="588.33" y2="545.48"/><line class="cls-3" x1="460.87" y1="537.04" x2="580.41" y2="537.04"/><line class="cls-3" x1="466.29" y1="528.59" x2="572.31" y2="528.59"/><line class="cls-3" x1="470.85" y1="520.14" x2="564.33" y2="520.14"/><line class="cls-3" x1="476.73" y1="511.7" x2="556.17" y2="511.7"/><line class="cls-3" x1="481.31" y1="503.25" x2="548.07" y2="503.25"/><line class="cls-3" x1="486.31" y1="494.8" x2="540.31" y2="494.8"/><line class="cls-3" x1="491.13" y1="486.36" x2="532.05" y2="486.36"/><line class="cls-3" x1="496.17" y1="477.91" x2="523.55" y2="477.91"/><line class="cls-3" x1="659.18" y1="301.21" x2="689.37" y2="301.21"/><line class="cls-3" x1="659.18" y1="292.76" x2="689.37" y2="292.76"/><line class="cls-3" x1="659.18" y1="284.3" x2="689.37" y2="284.3"/><line class="cls-3" x1="659.18" y1="275.85" x2="689.37" y2="275.85"/><line class="cls-3" x1="659.18" y1="267.39" x2="689.37" y2="267.39"/><line class="cls-3" x1="659.18" y1="258.94" x2="689.37" y2="258.94"/><line class="cls-3" x1="689.49" y1="301.21" x2="719.67" y2="301.21"/><line class="cls-3" x1="689.49" y1="292.76" x2="719.67" y2="292.76"/><line class="cls-3" x1="689.49" y1="284.3" x2="719.67" y2="284.3"/><line class="cls-3" x1="689.49" y1="275.85" x2="719.67" y2="275.85"/><line class="cls-3" x1="689.49" y1="267.39" x2="719.67" y2="267.39"/><line class="cls-3" x1="689.49" y1="258.94" x2="719.67" y2="258.94"/><line class="cls-2" x1="478.77" y1="246.46" x2="515.19" y2="246.46"/><line class="cls-2" x1="497.43" y1="246.46" x2="497.43" y2="345.58"/><rect class="cls-2" x="501.42" y="455.23" width="14.22" height="14.22"/><line class="cls-2" x1="515.64" y1="455.23" x2="585.09" y2="339.76"/><line class="cls-2" x1="501.42" y1="469.45" x2="441.09" y2="570.7"/><polyline class="cls-1" points="515.64 469.45 602.49 560.14 441.09 570.7 398.44 570.7"/><line class="cls-2" x1="501.42" y1="455.23" x2="402.69" y2="352.42"/><polyline class="cls-3" points="270.45 2.42 270.45 102.46 611.37 102.46 611.37 220.66"/><line class="cls-2" x1="183" y1="352.9" x2="183" y2="365.26"/><line class="cls-2" x1="183" y1="393.47" x2="183" y2="450.04"/><line class="cls-2" x1="291.3" y1="393.47" x2="291.3" y2="450.04"/><line class="cls-2" x1="183" y1="478.06" x2="183" y2="490.9"/><line class="cls-2" x1="291.12" y1="352.9" x2="291.12" y2="365.26"/><line class="cls-2" x1="291.12" y1="478.06" x2="291.12" y2="490.9"/><polyline class="cls-2" points="398.44 599.98 327.45 599.98 310.63 599.98 310.63 656.74"/><line class="cls-1" x1="689.28" y1="250.48" x2="689.28" y2="309.77"/><line class="cls-3" x1="366.21" y1="296.24" x2="402.69" y2="296.24"/><line class="cls-3" x1="366.21" y1="303.18" x2="402.69" y2="303.18"/><polyline class="cls-3" points="17.49 292.78 71.13 292.78 71.13 252.58 103.05 252.58 103.05 220.3 17.49 220.3"/><polyline class="cls-3" points="41.73 292.78 41.73 252.58 71.13 252.58 71.13 220.3"/><line class="cls-3" x1="319" y1="600.21" x2="319" y2="656.45"/><line class="cls-3" x1="327.45" y1="600.21" x2="327.45" y2="656.45"/><line class="cls-3" x1="335.89" y1="600.21" x2="335.89" y2="656.45"/><line class="cls-3" x1="344.34" y1="600.21" x2="344.34" y2="656.45"/><line class="cls-3" x1="440.82" y1="604.49" x2="398.71" y2="604.49"/><line class="cls-3" x1="440.82" y1="596.04" x2="398.35" y2="596.04"/><line class="cls-3" x1="440.82" y1="587.59" x2="398.35" y2="587.59"/><line class="cls-3" x1="440.82" y1="579.15" x2="398.35" y2="579.15"/><line class="cls-3" x1="440.82" y1="612.93" x2="398.71" y2="612.93"/><line class="cls-3" x1="398.4" y1="656.45" x2="398.4" y2="600.21"/><line class="cls-3" x1="389.96" y1="656.45" x2="389.96" y2="600.21"/><polyline class="cls-2" points="584.85 303.18 627.09 303.18 627.09 339.76"/><line class="cls-2" x1="555.44" y1="563.65" x2="562.31" y2="649.31"/><line class="cls-3" x1="559.69" y1="607.83" x2="605.74" y2="604.73"/><line class="cls-3" x1="557.38" y1="583.77" x2="603.43" y2="580.67"/><line class="cls-2" x1="689.49" y1="384.7" x2="754.89" y2="384.7"/><line class="cls-2" x1="784.53" y1="384.7" x2="802.65" y2="384.7"/><line class="cls-2" x1="784.53" y1="502.78" x2="812.01" y2="502.78"/><line class="cls-2" x1="627.09" y1="502.78" x2="598.05" y2="502.78"/><line class="cls-3" x1="294.36" y1="92.97" x2="270.56" y2="92.97"/><line class="cls-3" x1="270.56" y1="94.97" x2="294.36" y2="94.97"/><line class="cls-3" x1="270.56" y1="58" x2="294.36" y2="58"/><line class="cls-3" x1="294.36" y1="56" x2="270.56" y2="56"/><line class="cls-3" x1="301.95" y1="87.38" x2="301.95" y2="63.75"/><line class="cls-3" x1="299.95" y1="63.75" x2="299.95" y2="87.38"/><line class="cls-3" x1="264.97" y1="63.75" x2="264.97" y2="87.38"/><line class="cls-3" x1="262.97" y1="63.75" x2="262.97" y2="87.38"/><line class="cls-3" x1="294.36" y1="47.67" x2="270.56" y2="47.67"/><line class="cls-3" x1="270.56" y1="49.67" x2="294.36" y2="49.67"/><line class="cls-3" x1="270.56" y1="12.7" x2="294.36" y2="12.7"/><line class="cls-3" x1="294.36" y1="10.7" x2="270.56" y2="10.7"/><line class="cls-3" x1="301.95" y1="42.08" x2="301.95" y2="18.45"/><line class="cls-3" x1="299.95" y1="18.45" x2="299.95" y2="42.08"/><line class="cls-3" x1="264.97" y1="18.45" x2="264.97" y2="42.08"/><line class="cls-3" x1="262.97" y1="18.45" x2="262.97" y2="42.08"/><line class="cls-3" x1="343.51" y1="92.97" x2="319.71" y2="92.97"/><line class="cls-3" x1="319.71" y1="94.97" x2="343.51" y2="94.97"/><line class="cls-3" x1="319.71" y1="58" x2="343.51" y2="58"/><line class="cls-3" x1="343.51" y1="56" x2="319.71" y2="56"/><line class="cls-3" x1="351.1" y1="87.38" x2="351.1" y2="63.75"/><line class="cls-3" x1="349.1" y1="63.75" x2="349.1" y2="87.38"/><line class="cls-3" x1="314.12" y1="63.75" x2="314.12" y2="87.38"/><line class="cls-3" x1="312.12" y1="63.75" x2="312.12" y2="87.38"/><line class="cls-3" x1="343.51" y1="47.67" x2="319.71" y2="47.67"/><line class="cls-3" x1="319.71" y1="49.67" x2="343.51" y2="49.67"/><line class="cls-3" x1="319.71" y1="12.7" x2="343.51" y2="12.7"/><line class="cls-3" x1="343.51" y1="10.7" x2="319.71" y2="10.7"/><line class="cls-3" x1="351.1" y1="42.08" x2="351.1" y2="18.45"/><line class="cls-3" x1="349.1" y1="18.45" x2="349.1" y2="42.08"/><line class="cls-3" x1="314.12" y1="18.45" x2="314.12" y2="42.08"/><line class="cls-3" x1="312.12" y1="18.45" x2="312.12" y2="42.08"/><line class="cls-3" x1="392.67" y1="92.97" x2="368.87" y2="92.97"/><line class="cls-3" x1="368.87" y1="94.97" x2="392.67" y2="94.97"/><line class="cls-3" x1="368.87" y1="58" x2="392.67" y2="58"/><line class="cls-3" x1="392.67" y1="56" x2="368.87" y2="56"/><line class="cls-3" x1="400.26" y1="87.38" x2="400.26" y2="63.75"/><line class="cls-3" x1="398.26" y1="63.75" x2="398.26" y2="87.38"/><line class="cls-3" x1="363.28" y1="63.75" x2="363.28" y2="87.38"/><line class="cls-3" x1="361.28" y1="63.75" x2="361.28" y2="87.38"/><line class="cls-3" x1="392.67" y1="47.67" x2="368.87" y2="47.67"/><line class="cls-3" x1="368.87" y1="49.67" x2="392.67" y2="49.67"/><line class="cls-3" x1="368.87" y1="12.7" x2="392.67" y2="12.7"/><line class="cls-3" x1="392.67" y1="10.7" x2="368.87" y2="10.7"/><line class="cls-3" x1="400.26" y1="42.08" x2="400.26" y2="18.45"/><line class="cls-3" x1="398.26" y1="18.45" x2="398.26" y2="42.08"/><line class="cls-3" x1="363.28" y1="18.45" x2="363.28" y2="42.08"/><line class="cls-3" x1="361.28" y1="18.45" x2="361.28" y2="42.08"/><line class="cls-3" x1="441.82" y1="92.97" x2="418.02" y2="92.97"/><line class="cls-3" x1="418.02" y1="94.97" x2="441.82" y2="94.97"/><line class="cls-3" x1="418.02" y1="58" x2="441.82" y2="58"/><line class="cls-3" x1="441.82" y1="56" x2="418.02" y2="56"/><line class="cls-3" x1="449.41" y1="87.38" x2="449.41" y2="63.75"/><line class="cls-3" x1="447.41" y1="63.75" x2="447.41" y2="87.38"/><line class="cls-3" x1="412.43" y1="63.75" x2="412.43" y2="87.38"/><line class="cls-3" x1="410.43" y1="63.75" x2="410.43" y2="87.38"/><line class="cls-3" x1="441.82" y1="47.67" x2="418.02" y2="47.67"/><line class="cls-3" x1="418.02" y1="49.67" x2="441.82" y2="49.67"/><line class="cls-3" x1="418.02" y1="12.7" x2="441.82" y2="12.7"/><line class="cls-3" x1="441.82" y1="10.7" x2="418.02" y2="10.7"/><line class="cls-3" x1="449.41" y1="42.08" x2="449.41" y2="18.45"/><line class="cls-3" x1="447.41" y1="18.45" x2="447.41" y2="42.08"/><line class="cls-3" x1="412.43" y1="18.45" x2="412.43" y2="42.08"/><line class="cls-3" x1="410.43" y1="18.45" x2="410.43" y2="42.08"/><line class="cls-3" x1="490.98" y1="92.97" x2="467.18" y2="92.97"/><line class="cls-3" x1="467.18" y1="94.97" x2="490.98" y2="94.97"/><line class="cls-3" x1="467.18" y1="58" x2="490.98" y2="58"/><line class="cls-3" x1="490.98" y1="56" x2="467.18" y2="56"/><line class="cls-3" x1="498.57" y1="87.38" x2="498.57" y2="63.75"/><line class="cls-3" x1="496.57" y1="63.75" x2="496.57" y2="87.38"/><line class="cls-3" x1="461.59" y1="63.75" x2="461.59" y2="87.38"/><line class="cls-3" x1="459.59" y1="63.75" x2="459.59" y2="87.38"/><line class="cls-3" x1="490.98" y1="47.67" x2="467.18" y2="47.67"/><line class="cls-3" x1="467.18" y1="49.67" x2="490.98" y2="49.67"/><line class="cls-3" x1="467.18" y1="12.7" x2="490.98" y2="12.7"/><line class="cls-3" x1="490.98" y1="10.7" x2="467.18" y2="10.7"/><line class="cls-3" x1="498.57" y1="42.08" x2="498.57" y2="18.45"/><line class="cls-3" x1="496.57" y1="18.45" x2="496.57" y2="42.08"/><line class="cls-3" x1="461.59" y1="18.45" x2="461.59" y2="42.08"/><line class="cls-3" x1="459.59" y1="18.45" x2="459.59" y2="42.08"/><line class="cls-3" x1="540.13" y1="92.97" x2="516.33" y2="92.97"/><line class="cls-3" x1="516.33" y1="94.97" x2="540.13" y2="94.97"/><line class="cls-3" x1="516.33" y1="58" x2="540.13" y2="58"/><line class="cls-3" x1="540.13" y1="56" x2="516.33" y2="56"/><line class="cls-3" x1="547.72" y1="87.38" x2="547.72" y2="63.75"/><line class="cls-3" x1="545.72" y1="63.75" x2="545.72" y2="87.38"/><line class="cls-3" x1="510.74" y1="63.75" x2="510.74" y2="87.38"/><line class="cls-3" x1="508.74" y1="63.75" x2="508.74" y2="87.38"/><line class="cls-3" x1="540.13" y1="47.67" x2="516.33" y2="47.67"/><line class="cls-3" x1="516.33" y1="49.67" x2="540.13" y2="49.67"/><line class="cls-3" x1="516.33" y1="12.7" x2="540.13" y2="12.7"/><line class="cls-3" x1="540.13" y1="10.7" x2="516.33" y2="10.7"/><line class="cls-3" x1="547.72" y1="42.08" x2="547.72" y2="18.45"/><line class="cls-3" x1="545.72" y1="18.45" x2="545.72" y2="42.08"/><line class="cls-3" x1="510.74" y1="18.45" x2="510.74" y2="42.08"/><line class="cls-3" x1="508.74" y1="18.45" x2="508.74" y2="42.08"/><line class="cls-3" x1="589.29" y1="92.97" x2="565.49" y2="92.97"/><line class="cls-3" x1="565.49" y1="94.97" x2="589.29" y2="94.97"/><line class="cls-3" x1="565.49" y1="58" x2="589.29" y2="58"/><line class="cls-3" x1="589.29" y1="56" x2="565.49" y2="56"/><line class="cls-3" x1="596.88" y1="87.38" x2="596.88" y2="63.75"/><line class="cls-3" x1="594.88" y1="63.75" x2="594.88" y2="87.38"/><line class="cls-3" x1="559.9" y1="63.75" x2="559.9" y2="87.38"/><line class="cls-3" x1="557.9" y1="63.75" x2="557.9" y2="87.38"/><line class="cls-3" x1="589.29" y1="47.67" x2="565.49" y2="47.67"/><line class="cls-3" x1="565.49" y1="49.67" x2="589.29" y2="49.67"/><line class="cls-3" x1="565.49" y1="12.7" x2="589.29" y2="12.7"/><line class="cls-3" x1="589.29" y1="10.7" x2="565.49" y2="10.7"/><line class="cls-3" x1="596.88" y1="42.08" x2="596.88" y2="18.45"/><line class="cls-3" x1="594.88" y1="18.45" x2="594.88" y2="42.08"/><line class="cls-3" x1="559.9" y1="18.45" x2="559.9" y2="42.08"/><line class="cls-3" x1="557.9" y1="18.45" x2="557.9" y2="42.08"/><polygon class="cls-4" points="398.44 570.7 441.09 570.7 602.49 560.14 585.09 339.76 402.69 352.42 402.69 490.9 398.44 570.7"/></svg>