<?xml version="1.0" encoding="UTF-8"?>
<svg id="Casa_giorgione" xmlns="http://www.w3.org/2000/svg" version="1.1" viewBox="0 0 1134.22 710.25">
  <!-- Generator: Adobe Illustrator 30.0.0, SVG Export Plug-In . SVG Version: 2.1.1 Build 123)  -->
  <defs>
    <style>
      .st0, .st1, .st2 {
        stroke-miterlimit: 10;
      }

      .st0, .st1, .st2, .st3 {
        fill: none;
        stroke: #eeb9b9;
      }

      .st0, .st2 {
        stroke-width: 2.83px;
      }

      .st0, .st3 {
        stroke-linecap: round;
      }

      .st1, .st2 {
        stroke-linecap: square;
      }

      .st1, .st3 {
        stroke-width: .71px;
      }

      .st3 {
        stroke-linejoin: bevel;
      }
    </style>
  </defs>
  <polyline class="st2" points="244.21 301.5 244.21 549.74 23.73 549.74 1.49 138.3 244.21 125.1 810.61 125.1 810.61 1.42 1132.69 1.42 1091.41 527.66 471.73 527.66 471.73 502.46"/>
  <line class="st2" x1="10.45" y1="301.5" x2="89.57" y2="301.5"/>
  <line class="st2" x1="15.25" y1="388.3" x2="88.85" y2="388.3"/>
  <line class="st2" x1="122.61" y1="388.46" x2="244.21" y2="388.46"/>
  <polyline class="st2" points="122.61 301.5 244.21 301.5 244.21 247.82"/>
  <line class="st2" x1="160.53" y1="193.79" x2="160.53" y2="301.5"/>
  <line class="st2" x1="471.89" y1="463.26" x2="471.89" y2="395.62"/>
  <polyline class="st2" points="471.89 274.22 471.89 357.26 691.25 357.26"/>
  <line class="st2" x1="472.05" y1="255.34" x2="472.05" y2="228.94"/>
  <line class="st2" x1="394.93" y1="255.34" x2="410.13" y2="255.34"/>
  <line class="st2" x1="311.97" y1="255.34" x2="327.17" y2="255.34"/>
  <line class="st2" x1="244.21" y1="125.58" x2="244.21" y2="247.82"/>
  <line class="st2" x1="244.21" y1="186.46" x2="412.37" y2="186.46"/>
  <line class="st2" x1="472.05" y1="186.7" x2="472.05" y2="125.1"/>
  <line class="st1" x1="254.51" y1="125.46" x2="254.51" y2="185.86"/>
  <line class="st1" x1="264.97" y1="125.46" x2="264.97" y2="185.86"/>
  <line class="st1" x1="275.43" y1="125.46" x2="275.43" y2="185.86"/>
  <line class="st1" x1="285.89" y1="125.46" x2="285.89" y2="185.86"/>
  <line class="st1" x1="296.35" y1="125.46" x2="296.35" y2="185.86"/>
  <line class="st1" x1="306.81" y1="125.46" x2="306.81" y2="185.86"/>
  <line class="st1" x1="317.27" y1="125.46" x2="317.27" y2="185.86"/>
  <line class="st1" x1="327.73" y1="125.46" x2="327.73" y2="185.86"/>
  <line class="st1" x1="338.19" y1="125.46" x2="338.19" y2="185.86"/>
  <line class="st1" x1="400.95" y1="125.46" x2="400.95" y2="185.86"/>
  <line class="st1" x1="380.03" y1="125.46" x2="380.03" y2="185.86"/>
  <line class="st1" x1="359.11" y1="125.46" x2="359.11" y2="185.86"/>
  <line class="st1" x1="390.49" y1="125.46" x2="390.49" y2="185.86"/>
  <line class="st1" x1="369.57" y1="125.46" x2="369.57" y2="185.86"/>
  <line class="st1" x1="348.65" y1="125.46" x2="348.65" y2="185.86"/>
  <polyline class="st1" points="411.41 125.14 411.41 247.34 160.69 247.34"/>
  <polyline class="st3" points="411.41 247.34 244.21 217.58 411.41 186.46"/>
  <line class="st2" x1="1032.41" y1="366.77" x2="1103.57" y2="370.38"/>
  <polyline class="st2" points="729.97 357.3 845.33 357.3 993.73 364.81"/>
  <line class="st2" x1="845.33" y1="357.3" x2="845.33" y2="176.78"/>
  <line class="st2" x1="845.81" y1="124.3" x2="1017.17" y2="124.3"/>
  <line class="st2" x1="1055.89" y1="124.3" x2="1122.93" y2="124.3"/>
  <line class="st2" x1="166.77" y1="388.3" x2="166.77" y2="344.98"/>
  <line class="st2" x1="197.26" y1="343.74" x2="136.29" y2="343.74"/>
  <line class="st1" x1="136.28" y1="302.65" x2="136.28" y2="343.5"/>
  <line class="st1" x1="146.44" y1="302.65" x2="146.44" y2="343.5"/>
  <line class="st1" x1="156.61" y1="302.65" x2="156.61" y2="343.5"/>
  <line class="st1" x1="166.77" y1="302.65" x2="166.77" y2="343.5"/>
  <line class="st1" x1="176.93" y1="302.65" x2="176.93" y2="343.5"/>
  <line class="st1" x1="187.09" y1="302.65" x2="187.09" y2="343.5"/>
  <line class="st1" x1="197.26" y1="302.65" x2="197.26" y2="343.5"/>
  <line class="st1" x1="176.93" y1="343.77" x2="176.93" y2="388.42"/>
  <line class="st1" x1="187.09" y1="343.77" x2="187.09" y2="388.42"/>
  <line class="st1" x1="197.26" y1="343.77" x2="197.26" y2="388.42"/>
  <line class="st1" x1="244.21" y1="301.5" x2="197.26" y2="343.77"/>
  <line class="st1" x1="197.26" y1="343.77" x2="244.21" y2="388.46"/>
  <line class="st1" x1="244.21" y1="343.77" x2="197.26" y2="343.77"/>
  <line class="st1" x1="219.81" y1="301.5" x2="197.26" y2="343.77"/>
  <line class="st1" x1="219.81" y1="388.46" x2="197.26" y2="343.77"/>
  <line class="st1" x1="197.26" y1="343.74" x2="244.05" y2="322.71"/>
  <line class="st1" x1="197.26" y1="343.74" x2="244.21" y2="365.07"/>
  <polyline class="st1" points="23.73 549.74 30.13 669.42 244.05 669.42 244.05 549.74"/>
  <polyline class="st1" points="490.45 526.54 490.45 670.06 1078.69 670.06 1091.41 527.66"/>
  <line class="st1" x1="45.73" y1="709.9" x2="45.73" y2="488.94"/>
  <line class="st1" x1="109.25" y1="709.9" x2="109.25" y2="488.94"/>
  <line class="st1" x1="172.77" y1="709.9" x2="172.77" y2="488.94"/>
  <line class="st1" x1="236.29" y1="709.9" x2="236.29" y2="488.94"/>
  <line class="st1" x1="490.21" y1="709.9" x2="490.21" y2="488.94"/>
  <line class="st1" x1="553.73" y1="709.9" x2="553.73" y2="488.94"/>
  <line class="st1" x1="617.25" y1="709.9" x2="617.25" y2="488.94"/>
  <line class="st1" x1="680.77" y1="709.9" x2="680.77" y2="488.94"/>
  <line class="st1" x1="744.29" y1="709.9" x2="744.29" y2="488.94"/>
  <line class="st1" x1="807.81" y1="709.9" x2="807.81" y2="488.94"/>
  <line class="st1" x1="871.33" y1="709.9" x2="871.33" y2="488.94"/>
  <line class="st1" x1="934.85" y1="709.9" x2="934.85" y2="488.94"/>
  <line class="st1" x1="998.37" y1="709.9" x2="998.37" y2="488.94"/>
  <line class="st1" x1="1061.89" y1="709.9" x2="1061.89" y2="488.94"/>
  <polygon class="st0" points="1103.75 370.38 845.33 357.3 845.81 124.3 1122.93 124.3 1103.75 370.38"/>
</svg>