<?xml version="1.0" encoding="UTF-8"?><svg id="Piano_primo_C" xmlns="http://www.w3.org/2000/svg" viewBox="0 0 901.96 817.55"><defs><style>.cls-1,.cls-2,.cls-3,.cls-4,.cls-5,.cls-6,.cls-7{fill:none;}.cls-1,.cls-2,.cls-3,.cls-4,.cls-5,.cls-7{stroke:#ccc;}.cls-1,.cls-2,.cls-3,.cls-5{stroke-linecap:square;}.cls-1,.cls-2,.cls-6,.cls-7{stroke-width:2.83px;}.cls-1,.cls-3,.cls-4{stroke-linejoin:bevel;}.cls-2,.cls-5,.cls-6,.cls-7{stroke-miterlimit:10;}.cls-3,.cls-4,.cls-5{stroke-width:.71px;}.cls-6{stroke:#000;}.cls-6,.cls-7{stroke-linecap:round;}</style></defs><g id="Linee"><path class="cls-5" d="M325.31,309.7s34.96,0,34.32,0l-34.32,21.83"/><path class="cls-1" d="M796.79,309.89h0c-14.99,19.85-44.74,19.69-59.94,0h59.94Z"/><polyline class="cls-2" points="629.03 650.3 900.43 631.29 848.81 1.42 1.52 1.62 17.48 220.3 17.48 815.61 453.29 815.61 453.29 737.86 538.43 737.86 538.43 656.74 605.81 651.94"/><polyline class="cls-7" points="538.43 684.06 579.02 681.15 579.02 699.88 657.9 694.31 657.9 648.26"/><line class="cls-2" x1="198.8" y1="118.54" x2="10.4" y2="118.54"/><polyline class="cls-2" points="17.48 352.9 279.95 352.9 279.95 292.42"/><line class="cls-2" x1="184.43" y1="292.42" x2="184.43" y2="352.06"/><line class="cls-2" x1="232.55" y1="292.42" x2="232.55" y2="352.9"/><line class="cls-2" x1="212.87" y1="292.42" x2="252.23" y2="292.42"/><line class="cls-2" x1="232.19" y1="118.46" x2="247.17" y2="118.46"/><polyline class="cls-2" points="325.31 257.42 325.31 352.42 480.23 352.42 480.68 258.4 501.86 258.4"/><line class="cls-2" x1="360.11" y1="258.4" x2="480.11" y2="258.4"/><line class="cls-2" x1="325.31" y1="340.56" x2="480.11" y2="340.56"/><rect class="cls-2" x="359.63" y="289.72" width="84.12" height="19.98"/><line class="cls-2" x1="442.9" y1="656.74" x2="476.25" y2="656.74"/><line class="cls-2" x1="81.92" y1="656.74" x2="415.13" y2="656.74"/><line class="cls-2" x1="53.12" y1="490.9" x2="17.48" y2="490.9"/><line class="cls-2" x1="53.12" y1="657.02" x2="17.48" y2="657.02"/><line class="cls-2" x1="415.13" y1="490.9" x2="81.92" y2="490.9"/><polyline class="cls-2" points="442.9 490.9 480.23 490.9 520.28 490.9"/><line class="cls-2" x1="736.61" y1="339.76" x2="736.61" y2="250.6"/><line class="cls-2" x1="737.12" y1="339.76" x2="876.21" y2="339.76"/><polyline class="cls-2" points="530.12 258.04 662.63 258.04 662.63 339.76 704.63 339.76"/><line class="cls-2" x1="797.03" y1="250.6" x2="797.03" y2="339.22"/><line class="cls-2" x1="724.4" y1="502.9" x2="832.31" y2="502.9"/><line class="cls-2" x1="453.29" y1="737.86" x2="453.29" y2="656.74"/><line class="cls-5" x1="368" y1="258.76" x2="368" y2="289.62"/><line class="cls-5" x1="376.46" y1="258.76" x2="376.46" y2="289.62"/><line class="cls-5" x1="384.91" y1="258.76" x2="384.91" y2="289.62"/><line class="cls-5" x1="280.11" y1="352.99" x2="324.8" y2="352.99"/><line class="cls-5" x1="280.11" y1="344.54" x2="324.8" y2="344.54"/><line class="cls-5" x1="280.11" y1="336.09" x2="324.8" y2="336.09"/><line class="cls-5" x1="393.37" y1="258.76" x2="393.37" y2="289.62"/><line class="cls-5" x1="401.82" y1="258.76" x2="401.82" y2="289.62"/><line class="cls-5" x1="410.27" y1="258.76" x2="410.27" y2="289.62"/><line class="cls-5" x1="418.73" y1="258.76" x2="418.73" y2="289.62"/><line class="cls-5" x1="427.18" y1="258.76" x2="427.18" y2="289.62"/><line class="cls-5" x1="435.64" y1="258.76" x2="435.64" y2="289.62"/><line class="cls-5" x1="444.09" y1="258.76" x2="444.09" y2="289.62"/><line class="cls-5" x1="368.08" y1="309.7" x2="368.08" y2="340.56"/><polyline class="cls-5" points="359.63 340.56 359.63 309.7 342.99 340.56"/><line class="cls-5" x1="376.52" y1="309.7" x2="376.52" y2="340.56"/><line class="cls-5" x1="359.25" y1="301.28" x2="326.07" y2="301.28"/><line class="cls-5" x1="384.97" y1="309.7" x2="384.97" y2="340.56"/><line class="cls-5" x1="393.41" y1="309.7" x2="393.41" y2="340.56"/><line class="cls-5" x1="401.86" y1="309.7" x2="401.86" y2="340.56"/><line class="cls-5" x1="410.31" y1="309.7" x2="410.31" y2="340.56"/><line class="cls-5" x1="418.75" y1="309.7" x2="418.75" y2="340.56"/><line class="cls-5" x1="427.2" y1="309.7" x2="427.2" y2="340.56"/><line class="cls-5" x1="435.65" y1="309.7" x2="435.65" y2="340.56"/><line class="cls-5" x1="444.09" y1="309.7" x2="444.09" y2="340.56"/><line class="cls-5" x1="736.73" y1="301.21" x2="766.91" y2="301.21"/><line class="cls-5" x1="736.73" y1="292.75" x2="766.91" y2="292.75"/><line class="cls-5" x1="736.73" y1="284.3" x2="766.91" y2="284.3"/><line class="cls-5" x1="736.73" y1="275.84" x2="766.91" y2="275.84"/><line class="cls-5" x1="736.73" y1="267.39" x2="766.91" y2="267.39"/><line class="cls-5" x1="736.73" y1="258.93" x2="766.91" y2="258.93"/><line class="cls-5" x1="767.03" y1="301.21" x2="797.21" y2="301.21"/><line class="cls-5" x1="767.03" y1="292.75" x2="797.21" y2="292.75"/><line class="cls-5" x1="767.03" y1="284.3" x2="797.21" y2="284.3"/><line class="cls-5" x1="767.03" y1="275.84" x2="797.21" y2="275.84"/><line class="cls-5" x1="767.03" y1="267.39" x2="797.21" y2="267.39"/><line class="cls-5" x1="767.03" y1="258.93" x2="797.21" y2="258.93"/><polyline class="cls-5" points="328.88 102.46 688.91 102.46 688.91 208.64 706.57 208.64 706.57 102.46 688.91 102.46 688.91 1.42"/><line class="cls-1" x1="766.82" y1="250.48" x2="766.82" y2="309.76"/><line class="cls-5" x1="443.75" y1="296.24" x2="480.23" y2="296.24"/><line class="cls-5" x1="443.75" y1="303.18" x2="480.23" y2="303.18"/><line class="cls-5" x1="517.1" y1="549.02" x2="477.08" y2="549.02"/><line class="cls-5" x1="518" y1="540.5" x2="477.8" y2="540.5"/><line class="cls-5" x1="518.42" y1="531.98" x2="479.01" y2="531.98"/><line class="cls-5" x1="518.72" y1="523.46" x2="479.01" y2="523.46"/><line class="cls-5" x1="517.1" y1="557.54" x2="476.68" y2="557.54"/><line class="cls-5" x1="516.32" y1="566.06" x2="476.23" y2="566.06"/><line class="cls-5" x1="578.04" y1="612.02" x2="575.72" y2="570.56"/><line class="cls-5" x1="569.5" y1="612.02" x2="567.18" y2="570.56"/><line class="cls-5" x1="560.96" y1="612.02" x2="558.71" y2="571.7"/><line class="cls-5" x1="552.48" y1="613.04" x2="550.19" y2="572.06"/><line class="cls-5" x1="543.99" y1="613.88" x2="541.68" y2="572.68"/><line class="cls-5" x1="535.46" y1="614.08" x2="533.19" y2="573.47"/><line class="cls-5" x1="526.97" y1="614.96" x2="524.66" y2="573.62"/><line class="cls-5" x1="518.46" y1="615.5" x2="516.17" y2="574.58"/><polyline class="cls-5" points="475.78 574.58 515.79 574.82 474.74 592.7"/><polyline class="cls-2" points="662.96 303.18 704.63 303.18 704.63 339.76"/><line class="cls-2" x1="724.4" y1="384.7" x2="879.38" y2="384.7"/><line class="cls-2" x1="667.74" y1="384.7" x2="694.76" y2="384.7"/><line class="cls-2" x1="862.07" y1="502.78" x2="889.55" y2="502.78"/><line class="cls-2" x1="694.55" y1="502.78" x2="675.59" y2="502.78"/><polyline class="cls-2" points="280.52 118.54 328.88 118.54 328.88 2.72"/><polyline class="cls-5" points="371.9 102.46 371.9 208.64 688.58 208.64"/><rect class="cls-5" x="340.51" y="10.69" width="38.98" height="38.98" rx="7.16" ry="7.16" transform="translate(390.18 -329.82) rotate(90)"/><rect class="cls-5" x="389.67" y="10.69" width="38.98" height="38.98" rx="7.16" ry="7.16" transform="translate(439.34 -378.98) rotate(90)"/><rect class="cls-5" x="438.82" y="10.69" width="38.98" height="38.98" rx="7.16" ry="7.16" transform="translate(488.49 -428.13) rotate(90)"/><rect class="cls-5" x="487.98" y="10.69" width="38.98" height="38.98" rx="7.16" ry="7.16" transform="translate(537.65 -477.29) rotate(90)"/><rect class="cls-5" x="537.13" y="10.69" width="38.98" height="38.98" rx="7.16" ry="7.16" transform="translate(586.8 -526.44) rotate(90)"/><rect class="cls-5" x="586.29" y="10.69" width="38.98" height="38.98" rx="7.16" ry="7.16" transform="translate(635.96 -575.6) rotate(90)"/><rect class="cls-5" x="635.44" y="10.69" width="38.98" height="38.98" rx="7.16" ry="7.16" transform="translate(685.11 -624.75) rotate(90)"/><rect class="cls-5" x="340.47" y="55.99" width="38.98" height="38.98" rx="7.16" ry="7.16" transform="translate(435.44 -284.48) rotate(90)"/><rect class="cls-5" x="389.63" y="55.99" width="38.98" height="38.98" rx="7.16" ry="7.16" transform="translate(484.6 -333.63) rotate(90)"/><rect class="cls-5" x="438.78" y="55.99" width="38.98" height="38.98" rx="7.16" ry="7.16" transform="translate(533.75 -382.79) rotate(90)"/><rect class="cls-5" x="487.94" y="55.99" width="38.98" height="38.98" rx="7.16" ry="7.16" transform="translate(582.91 -431.94) rotate(90)"/><rect class="cls-5" x="537.09" y="55.99" width="38.98" height="38.98" rx="7.16" ry="7.16" transform="translate(632.06 -481.1) rotate(90)"/><rect class="cls-5" x="586.25" y="55.99" width="38.98" height="38.98" rx="7.16" ry="7.16" transform="translate(681.22 -530.25) rotate(90)"/><rect class="cls-5" x="635.4" y="55.99" width="38.98" height="38.98" rx="7.16" ry="7.16" transform="translate(730.37 -579.41) rotate(90)"/><polyline class="cls-4" points="541.4 208.63 558.57 191.02 541.4 190.93 558.52 173.37 541.4 173.37 558.58 155.75 541.4 155.66 558.39 138.23 541.4 138.25 558.47 120.74 541.4 120.74 558.56 102.46"/><polyline class="cls-3" points="689.03 208.66 706.2 191.05 689.03 190.96 706.15 173.4 689.03 173.4 706.21 155.78 689.03 155.69 706.02 138.26 689.03 138.28 706.09 120.77 689.03 120.77 706.35 103"/><line class="cls-5" x1="558.56" y1="102.46" x2="558.56" y2="208.64"/><line class="cls-5" x1="541.4" y1="102.46" x2="541.4" y2="208.64"/><line class="cls-5" x1="706.57" y1="1.1" x2="706.57" y2="102.46"/><line class="cls-2" x1="737.12" y1="216.92" x2="797.21" y2="216.92"/><line class="cls-2" x1="846.41" y1="217.34" x2="866.36" y2="217.34"/><line class="cls-2" x1="17.48" y1="220.3" x2="167" y2="220.3"/><rect class="cls-5" x="168.44" y="169.46" width="23.88" height="79.68"/><rect class="cls-5" x="168.44" y="118.54" width="23.88" height="17.14"/><line class="cls-2" x1="251.21" y1="434.9" x2="253.76" y2="490.9"/><line class="cls-2" x1="247.46" y1="352.9" x2="249.94" y2="407.14"/><polyline class="cls-2" points="325.31 352.42 325.31 443.64 415.13 443.64"/><line class="cls-2" x1="479.72" y1="443.64" x2="442.9" y2="443.64"/><line class="cls-2" x1="538.43" y1="656.74" x2="500.13" y2="656.74"/><line class="cls-2" x1="662.63" y1="258.04" x2="704.63" y2="258.04"/><polyline class="cls-2" points="680.33 563.72 515.79 574.82 520.28 490.9"/><polyline class="cls-2" points="578.04 612.02 473.42 618.98 480.23 490.9 480.23 352.42 662.63 339.76 686.84 646.13"/><line class="cls-5" x1="473.42" y1="618.98" x2="515.79" y2="574.82"/><line class="cls-2" x1="266.48" y1="656.74" x2="266.48" y2="722.52"/><line class="cls-2" x1="266.48" y1="750.29" x2="266.48" y2="816.14"/></g><polygon class="cls-6" points="538.43 684.06 579.02 681.15 579.02 699.88 657.9 694.31 657.9 648.26 900.43 631.29 880.22 384.7 666.18 384.7 680.33 563.72 575.72 570.56 578.04 612.02 538.43 614.65 538.43 684.06"/></svg>