<svg fill="none" height="35" viewBox="0 0 34 35" width="34" xmlns="http://www.w3.org/2000/svg"><g fill="#000"><path d="m17.264 33.1561v.9504c9.0036-.2287 15.5276-7.2101 15.8491-16.3351h-5.4378c-.2144 8.2033-4.1946 14.9274-10.4113 15.3918z"/><path d="m15.8491.00715267c-9.00353.22866233-15.527544 7.20999733-15.8491 16.33504733h5.43786c.21437-8.20326 4.19453-14.92734 10.41124-15.39181v-.95039z"/><path d="m0 17.7643c.321556 9.125 6.84557 16.1064 15.8491 16.335v-.9503c-6.21671-.4574-10.18972-7.1886-10.41124-15.3919h-5.43786z"/><path d="m16.629.0130767v.9503673c6.2168.457326 10.8247 7.182696 11.0463 15.385956h5.4378c-.3215-9.12505-7.4805-16.100508-16.4841-16.3291707z"/></g></svg>