<svg fill="none" height="352" viewBox="0 0 360 352" width="360" xmlns="http://www.w3.org/2000/svg" xmlns:xlink="http://www.w3.org/1999/xlink"><clipPath id="a"><path d="m0 0h360v351.818h-360z"/></clipPath><g clip-path="url(#a)" fill="#000"><path d="m308.079 42v51.7015h-51.427v51.4275h-51.428v51.428h-51.427v51.427h-50.449v-51.427h-51.4274v-51.428h-51.9206v.979h50.9416v51.428h51.4274v101.883h-50.9414v.972h51.9204v-51.428h50.449v51.428h51.427v51.427h51.921v-.972h-50.942v-51.427h-51.427v-101.883h51.427v-51.428h51.428v-51.4276h51.427v-51.6804h50.942v-1z"/><path d="m93.7015 172.04h-5.4379c-.2144 8.203-4.1945 14.927-10.4113 15.392v.95c9.0036-.229 15.5276-7.21 15.8492-16.335z"/><path d="m76.4303 155.233v-.95c-9.0035.228-15.5276 7.21-15.8491 16.335h5.4378c.2144-8.204 4.1946-14.928 10.4113-15.392z"/><path d="m76.4303 188.382v-.95c-6.2167-.458-10.1897-7.189-10.4113-15.392h-5.4378c.3215 9.125 6.8456 16.106 15.8491 16.335z"/><path d="m88.2636 170.625h5.4379c-.3216-9.125-6.8456-16.106-15.8492-16.335v.95c6.2168.458 10.1898 7.189 10.4113 15.392z"/><path d="m117.204 209.419v12.548h5.209v-14.921h2.844v-.95h-12.312v.708l.471.092c3.316.665 3.788.851 3.788 2.509z"/><path d="m133.067 234.522c2.365 3.08 5.209 5.209 11.126 4.737v-.707c-2.129-.708-2.365-1.422-4.502-4.023l-7.81-9.711h-2.13c-2.122 0-2.908-.193-4.073-1.422h-1.293z"/><path d="m133.389 221.216c3.365-1.279 5.366-3.744 5.366-7.06 0-5.209-4.259-8.053-11.605-8.053h-.471v.951c4.259 0 6.631 2.601 6.631 7.102 0 4.502-2.129 7.103-6.395 7.103h-.236v.708h2.308c1.5 0 3.001-.222 4.409-.758z"/><path d="m127.622 238.545-.707-.093c-4.166-.572-4.502-.85-4.502-2.508v-12.548h-5.209v12.548c0 1.658-.472 1.843-3.788 2.508l-.471.093v.707h14.677z"/><path d="m187.81 290.165-.707-.093c-4.166-.571-4.502-.85-4.502-2.508v-12.548h-5.209v12.548c0 1.658-.329 1.944-4.502 2.508l-.707.093v.708h15.627z"/><path d="m191.126 261.518 2.601 4.023h.707l-1.186-7.81h-6.395v.95h.95c1.658 0 1.658.329 3.316 2.844z"/><path d="m173.133 258.674v-.95h-6.395l-1.187 7.81h.708l2.601-4.023c1.658-2.508 1.658-2.844 3.315-2.844h.951z"/><path d="m182.601 273.594v-14.92h2.844v-.943h-10.89v.943h2.837v14.92z"/><path d="m27.4895 135.768-.7074-.093c-4.166-.571-4.5018-.85-4.5018-2.508v-12.548h-5.2092v12.548c0 1.658-.4717 1.844-3.7873 2.508l-.4716.093v.708h14.6773z"/><path d="m17.0711 106.642v12.548h5.2092v-14.92h2.844v-.95h-12.3121v.707l.4716.093c3.3156.664 3.7873.85 3.7873 2.508z"/><path d="m33.2561 118.44c3.3656-1.279 5.3664-3.744 5.3664-7.06 0-5.209-4.2589-8.053-11.6046-8.053h-.4716v.95c4.2588 0 6.6312 2.601 6.6312 7.103s-2.1295 7.103-6.3954 7.103h-.2358v.707h2.308c1.5006 0 3.0012-.221 4.4018-.757z"/><path d="m242.675 136.719h.707v-6.853-2.151-7.339h-1.179v7.339l-5.509-7.339h-6.367z"/><path d="m242.203 108.779v10.183h1.186v-10.183c0-3.08.951-4.309 3.788-4.881l.471-.092v-.708h-9.711v.708l.472.092c2.844.565 3.787 1.801 3.787 4.881z"/><path d="m219.473 118.962h1.179v-9.426l-1.179-1.515z"/><path d="m224.918 135.532-.472-.093c-2.844-.571-3.787-1.8-3.787-4.88v-10.183h-1.186v10.183c0 3.08-.951 4.309-3.787 4.88l-.472.093v.708h9.711v-.708z"/><path d="m219.944 106.642 9.304 12.312h6.381l-11.897-15.863h-8.525v.707h.95c1.658 0 2.273.808 3.787 2.844z"/><path d="m283.891 85.5268v-.9504c-5.988-.4573-10.175-7.1885-10.404-15.3918h-5.445c.314 9.1251 6.617 16.1064 15.849 16.3351z"/><path d="m283.891 52.3779v-.9503c-9.232.2286-15.535 7.21-15.849 16.335h5.445c.229-8.2032 4.423-14.9273 10.404-15.3918z"/><path d="m293.123 56.401 2.844 4.5018h.708l-.951-6.6313c-2.843-1.8936-6.395-2.8439-10.418-2.8439v.9503c2.844 0 5.917 1.6578 7.81 4.0231z"/><path d="m297.625 75.1084h-.707l-3.787 5.445c-1.894 2.3652-4.502 3.7872-7.811 4.023v.9504c3.788 0 7.811-.9504 10.655-2.844l1.657-7.5744z"/><path d="m86.1413 260.882 2.844 4.502h.7074l-.9503-7.81h-10.4185v.95h4.2589c2.3652 0 2.701.993 3.5514 2.365z"/><path d="m64.5899 258.281.4716.093c3.3156.665 3.7873.85 3.7873 2.508v12.548h5.2092v-14.92h2.844v-.951h-12.3121v.708z"/><path d="m64.5899 290.715h14.6773v-.707l-.7074-.093c-4.166-.572-4.5018-.85-4.5018-2.508v-12.548h-5.2092v12.548c0 1.658-.4717 1.844-3.7873 2.508l-.4716.093z"/><path d="m75.4871 274.616h5.2092c2.1294 0 2.601.951 3.5514 5.209h.7074v-11.361h-.7074c-.9504 4.259-1.422 5.209-3.5514 5.209h-5.2092v.95z"/><path d="m173.776 173.94h8.389l-.336-.95h-7.696z"/><path d="m189.189 172.754-6.817-18.707h-.714c-.736.957-2.358 1.422-3.566 1.422h-.464l6.174 17.285h5.395z"/><path d="m187.753 183.88c.95 2.608-.036 3.266-2.637 3.787l-1.186.236v.708h13.684v-.708l-.614-.143c-1.987-.471-2.809-1.279-3.852-4.116l-3.444-9.475h-5.267z"/><path d="m166.266 188.618h5.824v-.708l-1.186-.235c-2.609-.522-3.838-1.187-2.844-3.788l3.58-9.711h-1.265l-3.502 9.475c-1.086 2.844-1.893 3.645-3.88 4.116l-.614.143v.708h3.88z"/><path d="m177.492 158.091-.579-1.636-6.009 16.299h1.264z"/><path d="m350.818 17.757h-5.438c-.214 8.2033-4.195 14.9274-10.411 15.3919v.9504c9.003-.2287 15.527-7.2101 15.849-16.3351z"/><path d="m333.547.950377v-.950377c-9.004.228662-15.528 7.21001-15.849 16.3351h5.437c.215-8.2033 4.195-14.9274 10.412-15.391868z"/><path d="m333.547 34.0993v-.9504c-6.217-.4573-10.19-7.1886-10.412-15.3919h-5.437c.321 9.1251 6.845 16.1064 15.849 16.3351z"/><path d="m345.38 16.3351h5.438c-.322-9.12509-6.846-16.106438-15.849-16.3351v.950377c6.216.457323 10.189 7.188573 10.411 15.391823z"/><path d="m232.135 342.136v.95c9.004-.228 15.528-7.21 15.849-16.335h-5.438c-.214 8.203-4.194 14.928-10.411 15.392z"/><path d="m230.72 308.987c-9.003.229-15.527 7.21-15.849 16.335h5.438c.214-8.203 4.194-14.927 10.411-15.392v-.95z"/><path d="m214.871 326.744c.322 9.125 6.846 16.106 15.849 16.335v-.95c-6.217-.458-10.19-7.189-10.411-15.392h-5.438z"/><path d="m232.135 308.987v.95c6.217.458 10.19 7.189 10.411 15.392h5.438c-.321-9.125-6.845-16.106-15.849-16.335z"/></g></svg>